<svg xmlns="http://www.w3.org/2000/svg" xmlns:xlink="http://www.w3.org/1999/xlink" width="40" zoomAndPan="magnify" viewBox="0 0 30 30.000001" height="40" preserveAspectRatio="xMidYMid meet" version="1.0"><defs><clipPath id="189be435a1"><path d="M 8 26 L 11 26 L 11 27.398438 L 8 27.398438 Z M 8 26 " clip-rule="nonzero"/></clipPath><clipPath id="bef8de2bca"><path d="M 3 26 L 6 26 L 6 27.398438 L 3 27.398438 Z M 3 26 " clip-rule="nonzero"/></clipPath><clipPath id="f9e825ff54"><path d="M 3 25 L 6 25 L 6 27.398438 L 3 27.398438 Z M 3 25 " clip-rule="nonzero"/></clipPath><clipPath id="1ee36e4152"><path d="M 0.484375 27 L 29 27 L 29 27.398438 L 0.484375 27.398438 Z M 0.484375 27 " clip-rule="nonzero"/></clipPath><clipPath id="fa10506559"><path d="M 12 26 L 17 26 L 17 27.398438 L 12 27.398438 Z M 12 26 " clip-rule="nonzero"/></clipPath><clipPath id="405881f502"><path d="M 16 26 L 21 26 L 21 27.398438 L 16 27.398438 Z M 16 26 " clip-rule="nonzero"/></clipPath></defs><path fill="#dae4fe" d="M 19.074219 21.828125 C 17.996094 22.054688 16.882812 22.167969 15.753906 22.214844 C 12.878906 22.335938 9.859375 22.078125 7.105469 21.226562 C 3.441406 20.089844 1.914062 15.5625 4.289062 12.449219 C 4.980469 11.542969 5.894531 11.011719 6.785156 10.339844 C 7.828125 9.546875 8.785156 8.636719 9.523438 7.539062 C 10.164062 6.578125 10.589844 5.484375 11.292969 4.566406 C 12.066406 3.550781 13.226562 2.917969 14.46875 2.71875 C 18.921875 1.996094 23.855469 4.605469 26.550781 8.125 C 29.519531 12.007812 26.988281 17.289062 23.558594 19.863281 C 22.179688 20.894531 20.667969 21.492188 19.074219 21.828125 Z M 19.074219 21.828125 " fill-opacity="1" fill-rule="nonzero"/><path fill="#dae4fe" d="M 2.21875 15.824219 C 2.105469 15.824219 2.011719 15.738281 2.003906 15.625 C 1.816406 13.332031 2.914062 11.46875 5.257812 10.078125 C 7.386719 8.820312 8.839844 6.425781 8.855469 6.398438 C 8.917969 6.296875 9.050781 6.261719 9.152344 6.324219 C 9.253906 6.390625 9.285156 6.523438 9.226562 6.628906 C 9.164062 6.730469 7.703125 9.140625 5.480469 10.457031 C 3.289062 11.753906 2.265625 13.480469 2.4375 15.585938 C 2.445312 15.707031 2.355469 15.8125 2.238281 15.824219 C 2.230469 15.824219 2.226562 15.824219 2.21875 15.824219 Z M 2.21875 15.824219 " fill-opacity="1" fill-rule="nonzero"/><g clip-path="url(#189be435a1)"><path fill="#4b6fdd" d="M 8.824219 26.25 C 8.824219 26.25 8.910156 26.894531 8.992188 26.992188 C 9.277344 27.324219 9.910156 27.210938 10.226562 27.011719 C 10.425781 26.886719 10.242188 26.453125 10.242188 26.453125 Z M 8.824219 26.25 " fill-opacity="1" fill-rule="nonzero"/></g><path fill="#192351" d="M 9.828125 25.585938 C 9.828125 25.585938 10.023438 26.027344 10.054688 26.074219 C 10.085938 26.121094 10.621094 26.789062 9.910156 26.933594 C 9.199219 27.082031 9.039062 26.976562 8.871094 26.492188 C 8.773438 26.207031 8.878906 25.660156 8.878906 25.660156 C 8.878906 25.660156 8.917969 25.824219 9.160156 25.828125 C 9.589844 25.832031 9.777344 25.746094 9.828125 25.585938 Z M 9.828125 25.585938 " fill-opacity="1" fill-rule="nonzero"/><path fill="#ffffff" d="M 9.746094 25.914062 L 9.203125 25.992188 C 9.183594 25.992188 9.164062 25.980469 9.160156 25.957031 C 9.160156 25.9375 9.171875 25.917969 9.195312 25.917969 L 9.738281 25.839844 C 9.757812 25.835938 9.777344 25.851562 9.777344 25.871094 C 9.78125 25.890625 9.765625 25.910156 9.746094 25.914062 Z M 9.746094 25.914062 " fill-opacity="1" fill-rule="nonzero"/><path fill="#ffffff" d="M 9.78125 26.0625 L 9.238281 26.140625 C 9.21875 26.144531 9.199219 26.128906 9.195312 26.109375 C 9.191406 26.085938 9.207031 26.066406 9.226562 26.066406 L 9.769531 25.988281 C 9.792969 25.984375 9.808594 26 9.8125 26.019531 C 9.816406 26.039062 9.800781 26.058594 9.78125 26.0625 Z M 9.78125 26.0625 " fill-opacity="1" fill-rule="nonzero"/><path fill="#ffffff" d="M 9.816406 26.238281 L 9.273438 26.316406 C 9.253906 26.316406 9.234375 26.304688 9.234375 26.28125 C 9.230469 26.261719 9.246094 26.242188 9.265625 26.242188 L 9.808594 26.164062 C 9.828125 26.160156 9.847656 26.175781 9.851562 26.195312 C 9.851562 26.214844 9.839844 26.234375 9.816406 26.238281 Z M 9.816406 26.238281 " fill-opacity="1" fill-rule="nonzero"/><path fill="#192351" d="M 8.789062 18.75 C 8.492188 17.476562 8.402344 16.183594 8.402344 16.183594 L 7.234375 15.257812 L 4.691406 16.199219 C 4.605469 17.351562 4.671875 22.515625 4.667969 23.222656 C 4.664062 23.933594 4.660156 25.613281 4.660156 25.613281 C 4.660156 25.613281 5.5 25.804688 5.835938 25.515625 C 5.835938 25.515625 6.003906 24.277344 6.042969 23.699219 C 6.183594 21.722656 6.542969 18.394531 6.542969 18.394531 C 6.542969 18.394531 7.089844 19.972656 7.554688 21.222656 L 8.660156 25.457031 C 9.695312 25.558594 9.988281 25.289062 9.988281 25.289062 C 9.988281 25.289062 8.988281 19.605469 8.789062 18.75 Z M 8.789062 18.75 " fill-opacity="1" fill-rule="nonzero"/><path fill="#dae4fe" d="M 6.542969 18.410156 C 6.535156 18.410156 6.527344 18.40625 6.523438 18.398438 L 6.375 17.609375 C 6.371094 17.597656 6.378906 17.589844 6.386719 17.589844 C 6.394531 17.585938 6.402344 17.59375 6.40625 17.601562 L 6.558594 18.390625 C 6.558594 18.398438 6.554688 18.410156 6.542969 18.410156 Z M 6.542969 18.410156 " fill-opacity="1" fill-rule="nonzero"/><path fill="#dae4fe" d="M 6.464844 18.015625 C 6.464844 18.015625 6.460938 18.015625 6.460938 18.015625 C 6.449219 18.007812 6.171875 17.894531 6.054688 17.796875 C 6.046875 17.789062 6.046875 17.777344 6.050781 17.769531 C 6.058594 17.765625 6.066406 17.761719 6.074219 17.769531 C 6.1875 17.863281 6.46875 17.980469 6.472656 17.984375 C 6.480469 17.988281 6.484375 17.996094 6.480469 18.003906 C 6.476562 18.011719 6.472656 18.015625 6.464844 18.015625 Z M 6.464844 18.015625 " fill-opacity="1" fill-rule="nonzero"/><g clip-path="url(#bef8de2bca)"><path fill="#4b6fdd" d="M 3.296875 26.796875 C 3.296875 26.796875 3.230469 27.183594 3.679688 27.230469 C 4.128906 27.277344 4.445312 27.253906 4.679688 27.203125 C 4.910156 27.148438 5.042969 27.074219 5.289062 27.097656 C 5.53125 27.117188 5.78125 27.222656 5.90625 27.09375 C 6.007812 26.992188 5.914062 26.707031 5.914062 26.707031 L 4.566406 26.714844 Z M 3.296875 26.796875 " fill-opacity="1" fill-rule="nonzero"/></g><g clip-path="url(#f9e825ff54)"><path fill="#192351" d="M 4.722656 25.960938 C 4.722656 25.960938 4.1875 26.347656 3.925781 26.480469 C 3.660156 26.613281 3.320312 26.519531 3.296875 26.796875 C 3.273438 27.070312 4.015625 27.011719 4.449219 26.96875 C 4.886719 26.929688 5.191406 26.757812 5.417969 26.824219 C 5.644531 26.894531 5.898438 26.785156 5.914062 26.707031 C 5.933594 26.632812 5.820312 25.960938 5.765625 25.898438 C 5.765625 25.898438 5.730469 26.03125 5.304688 26.042969 C 4.875 26.050781 4.722656 25.960938 4.722656 25.960938 Z M 4.722656 25.960938 " fill-opacity="1" fill-rule="nonzero"/></g><path fill="#ffffff" d="M 4.222656 26.519531 L 4.21875 26.527344 C 4.203125 26.535156 4.1875 26.527344 4.179688 26.515625 L 4.097656 26.375 C 4.09375 26.363281 4.097656 26.347656 4.109375 26.339844 L 4.113281 26.335938 C 4.128906 26.328125 4.144531 26.332031 4.152344 26.34375 L 4.234375 26.484375 C 4.242188 26.496094 4.234375 26.511719 4.222656 26.519531 Z M 4.222656 26.519531 " fill-opacity="1" fill-rule="nonzero"/><path fill="#ffffff" d="M 4.34375 26.433594 L 4.339844 26.4375 C 4.324219 26.445312 4.308594 26.441406 4.300781 26.429688 L 4.222656 26.289062 C 4.214844 26.277344 4.21875 26.257812 4.230469 26.253906 L 4.238281 26.246094 C 4.25 26.238281 4.265625 26.242188 4.273438 26.257812 L 4.355469 26.398438 C 4.359375 26.410156 4.355469 26.425781 4.34375 26.433594 Z M 4.34375 26.433594 " fill-opacity="1" fill-rule="nonzero"/><path fill="#ffffff" d="M 4.488281 26.339844 L 4.480469 26.34375 C 4.46875 26.351562 4.453125 26.347656 4.445312 26.335938 L 4.363281 26.195312 C 4.355469 26.183594 4.359375 26.167969 4.371094 26.160156 L 4.378906 26.15625 C 4.390625 26.148438 4.40625 26.152344 4.414062 26.164062 L 4.496094 26.304688 C 4.503906 26.316406 4.5 26.332031 4.488281 26.339844 Z M 4.488281 26.339844 " fill-opacity="1" fill-rule="nonzero"/><path fill="#ffffff" d="M 4.625 26.25 L 4.621094 26.253906 C 4.605469 26.261719 4.59375 26.257812 4.585938 26.246094 L 4.503906 26.105469 C 4.496094 26.09375 4.5 26.074219 4.511719 26.066406 L 4.519531 26.0625 C 4.53125 26.054688 4.546875 26.058594 4.554688 26.074219 L 4.636719 26.214844 C 4.644531 26.226562 4.636719 26.242188 4.625 26.25 Z M 4.625 26.25 " fill-opacity="1" fill-rule="nonzero"/><path fill="#c47249" d="M 5.851562 13.417969 C 5.03125 13.550781 3.625 13.898438 3.625 13.898438 C 3.679688 13.046875 3.78125 12.371094 3.902344 11.839844 C 4.347656 9.941406 5.214844 9.820312 5.214844 9.820312 L 5.855469 10.152344 L 6.597656 10.472656 C 6.597656 10.472656 6.671875 13.289062 5.851562 13.417969 Z M 5.851562 13.417969 " fill-opacity="1" fill-rule="nonzero"/><path fill="#c47249" d="M 4.929688 13.589844 C 4.929688 13.589844 5.292969 14.621094 4.582031 14.730469 C 4.324219 14.769531 3.09375 13.761719 3.09375 13.761719 L 3.90625 13.238281 Z M 4.929688 13.589844 " fill-opacity="1" fill-rule="nonzero"/><path fill="#4b6fdd" d="M 5.855469 10.152344 C 5.800781 10.863281 5.660156 11.773438 5.296875 11.851562 C 4.847656 11.949219 4.199219 11.878906 3.902344 11.839844 C 4.347656 9.941406 5.125 9.808594 5.125 9.808594 Z M 5.855469 10.152344 " fill-opacity="1" fill-rule="nonzero"/><path fill="#192351" d="M 4.800781 11.910156 C 4.800781 11.910156 4.796875 11.910156 4.800781 11.910156 C 4.792969 11.910156 4.789062 11.90625 4.789062 11.898438 C 4.789062 11.894531 4.824219 11.359375 4.894531 11.066406 C 4.898438 11.0625 4.902344 11.058594 4.90625 11.0625 C 4.910156 11.0625 4.914062 11.066406 4.914062 11.074219 C 4.839844 11.363281 4.808594 11.894531 4.808594 11.902344 C 4.808594 11.90625 4.804688 11.910156 4.800781 11.910156 Z M 4.800781 11.910156 " fill-opacity="1" fill-rule="nonzero"/><path fill="#c47249" d="M 5.457031 10.359375 C 5.460938 10.351562 6.15625 11.101562 6.613281 10.949219 C 7.121094 10.777344 7.351562 9.726562 7.351562 9.726562 L 7.269531 8.667969 L 7.269531 8.589844 L 7.167969 8.625 L 6.769531 8.773438 L 6.605469 8.832031 L 6.195312 8.984375 C 6.195312 8.984375 6.191406 9.257812 6.140625 9.480469 C 6.132812 9.503906 6.128906 9.523438 6.121094 9.546875 C 6.113281 9.582031 6.09375 9.617188 6.074219 9.648438 C 6.03125 9.714844 5.976562 9.761719 5.976562 9.761719 C 5.875 9.980469 5.460938 10.359375 5.457031 10.359375 Z M 5.457031 10.359375 " fill-opacity="1" fill-rule="nonzero"/><path fill="#c47249" d="M 5.613281 8.359375 C 5.742188 8.933594 5.96875 9.507812 6.515625 9.421875 C 6.898438 9.359375 7.269531 8.820312 7.351562 8.328125 C 7.394531 8.070312 7.433594 7.851562 7.433594 7.683594 C 7.433594 7.550781 7.425781 7.464844 7.425781 7.464844 L 7.332031 7.175781 L 7.277344 7.007812 C 7.277344 7.007812 7.152344 6.90625 7.015625 6.792969 C 6.84375 6.648438 6.578125 6.855469 6.574219 6.847656 C 6.566406 6.832031 5.796875 6.722656 5.554688 7.035156 C 5.554688 7.035156 5.554688 7.039062 5.554688 7.039062 C 5.53125 7.066406 5.515625 7.09375 5.503906 7.125 C 5.496094 7.148438 5.492188 7.175781 5.492188 7.199219 C 5.492188 7.246094 5.492188 7.320312 5.496094 7.410156 C 5.496094 7.449219 5.5 7.492188 5.503906 7.535156 C 5.507812 7.609375 5.511719 7.691406 5.519531 7.777344 C 5.539062 7.957031 5.566406 8.160156 5.613281 8.359375 Z M 5.613281 8.359375 " fill-opacity="1" fill-rule="nonzero"/><path fill="#192351" d="M 5.679688 8.621094 C 5.796875 9.144531 6.015625 9.472656 6.523438 9.421875 C 7.007812 9.375 7.261719 8.847656 7.335938 8.394531 C 7.296875 8.289062 7.253906 8.023438 7.253906 8.023438 C 7.253906 8.023438 7.128906 7.828125 7.128906 7.835938 C 7.148438 7.917969 7.140625 8.472656 6.90625 8.539062 C 6.652344 8.617188 6.558594 8.683594 6.460938 8.679688 C 6.363281 8.679688 6.335938 8.644531 6.25 8.667969 C 6.164062 8.6875 6.105469 8.734375 5.988281 8.714844 C 5.878906 8.695312 5.757812 8.773438 5.679688 8.621094 Z M 5.679688 8.621094 " fill-opacity="1" fill-rule="nonzero"/><path fill="#192351" d="M 7.457031 7.675781 C 7.457031 7.675781 7.550781 6.417969 6.828125 6.417969 C 6.828125 6.417969 6.265625 6.152344 5.644531 6.515625 C 5.234375 6.753906 5.382812 7.253906 5.425781 7.429688 C 5.449219 7.539062 5.492188 7.628906 5.507812 7.621094 C 5.546875 7.605469 5.550781 7.496094 5.695312 7.53125 C 6.285156 7.667969 6.652344 7.21875 6.816406 7.316406 C 6.984375 7.414062 7.335938 8.394531 7.335938 8.394531 C 7.335938 8.394531 7.367188 7.933594 7.457031 7.675781 Z M 7.457031 7.675781 " fill-opacity="1" fill-rule="nonzero"/><path fill="#c47249" d="M 7.316406 7.785156 C 7.316406 7.785156 7.640625 7.546875 7.644531 7.890625 C 7.648438 8.234375 7.335938 8.398438 7.335938 8.398438 Z M 7.316406 7.785156 " fill-opacity="1" fill-rule="nonzero"/><path fill="#192351" d="M 7.402344 7.890625 C 7.402344 7.890625 7.660156 7.796875 7.414062 8.179688 Z M 7.402344 7.890625 " fill-opacity="1" fill-rule="nonzero"/><path fill="#192351" d="M 5.964844 8.1875 C 5.980469 8.25 5.972656 8.285156 5.9375 8.292969 C 5.902344 8.304688 5.875 8.277344 5.859375 8.21875 C 5.84375 8.160156 5.851562 8.125 5.886719 8.113281 C 5.921875 8.105469 5.945312 8.128906 5.964844 8.1875 Z M 5.964844 8.1875 " fill-opacity="1" fill-rule="nonzero"/><path fill="#192351" d="M 6.589844 8.085938 C 6.605469 8.144531 6.597656 8.179688 6.5625 8.191406 C 6.527344 8.199219 6.5 8.175781 6.484375 8.113281 C 6.46875 8.054688 6.476562 8.019531 6.511719 8.011719 C 6.546875 8 6.570312 8.023438 6.589844 8.085938 Z M 6.589844 8.085938 " fill-opacity="1" fill-rule="nonzero"/><path fill="#192351" d="M 5.988281 8.027344 C 5.988281 8.027344 5.828125 7.917969 5.699219 8 Z M 5.988281 8.027344 " fill-opacity="1" fill-rule="nonzero"/><path fill="#192351" d="M 6.734375 7.839844 C 6.722656 7.839844 6.523438 7.820312 6.414062 7.957031 Z M 6.734375 7.839844 " fill-opacity="1" fill-rule="nonzero"/><path fill="#192351" d="M 6.222656 8.464844 C 6.183594 8.464844 6.167969 8.445312 6.160156 8.433594 C 6.136719 8.390625 6.160156 8.324219 6.199219 8.296875 C 6.203125 8.292969 6.207031 8.292969 6.210938 8.296875 C 6.214844 8.300781 6.214844 8.308594 6.207031 8.3125 C 6.175781 8.335938 6.160156 8.394531 6.175781 8.421875 C 6.191406 8.453125 6.234375 8.453125 6.296875 8.429688 C 6.300781 8.425781 6.304688 8.429688 6.308594 8.433594 C 6.308594 8.441406 6.308594 8.445312 6.300781 8.449219 C 6.269531 8.460938 6.246094 8.464844 6.222656 8.464844 Z M 6.222656 8.464844 " fill-opacity="1" fill-rule="nonzero"/><path fill="#ffffff" d="M 6.140625 8.960938 C 6.140625 8.960938 6.148438 8.972656 6.167969 8.992188 C 6.199219 9.019531 6.257812 9.0625 6.347656 9.050781 C 6.4375 9.039062 6.492188 8.980469 6.519531 8.941406 C 6.535156 8.917969 6.542969 8.902344 6.542969 8.902344 Z M 6.140625 8.960938 " fill-opacity="1" fill-rule="nonzero"/><path fill="#4b6fdd" d="M 8.949219 10.222656 C 8.425781 11.238281 8.335938 14.582031 8.464844 16.351562 C 7.308594 16.625 5.652344 16.765625 4.667969 16.488281 C 4.8125 14.597656 4.582031 11.480469 5.125 9.808594 C 5.125 9.808594 5.738281 9.625 6.144531 9.609375 C 5.804688 10.078125 7.082031 10.207031 7.351562 9.609375 C 7.351562 9.609375 8.65625 9.886719 8.949219 10.222656 Z M 8.949219 10.222656 " fill-opacity="1" fill-rule="nonzero"/><path fill="#192351" d="M 4.800781 11.910156 C 4.800781 11.910156 4.796875 11.910156 4.800781 11.910156 C 4.792969 11.910156 4.789062 11.90625 4.789062 11.898438 C 4.789062 11.894531 4.824219 11.359375 4.894531 11.066406 C 4.898438 11.0625 4.902344 11.058594 4.90625 11.0625 C 4.910156 11.0625 4.914062 11.066406 4.914062 11.074219 C 4.839844 11.363281 4.808594 11.894531 4.808594 11.902344 C 4.808594 11.90625 4.804688 11.910156 4.800781 11.910156 Z M 4.800781 11.910156 " fill-opacity="1" fill-rule="nonzero"/><path fill="#c47249" d="M 10.625 13.851562 C 10.785156 14.503906 10.226562 14.773438 9.015625 14.316406 C 8.445312 14.101562 8.03125 14.023438 7.898438 13.902344 L 7.972656 13.226562 C 8.074219 13.257812 8.703125 13.273438 9.269531 13.351562 L 8.78125 12.25 C 8.914062 12.238281 9.429688 12.117188 9.875 11.695312 C 10.285156 12.605469 10.484375 13.289062 10.625 13.851562 Z M 10.625 13.851562 " fill-opacity="1" fill-rule="nonzero"/><path fill="#4b6fdd" d="M 8.882812 10.160156 C 8.882812 10.160156 9.253906 10.347656 9.582031 10.914062 C 9.878906 11.425781 10.175781 12.058594 10.117188 12.132812 C 9.738281 12.582031 8.863281 12.636719 8.863281 12.636719 L 8.46875 11.878906 Z M 8.882812 10.160156 " fill-opacity="1" fill-rule="nonzero"/><path fill="#192351" d="M 10.375 13.703125 C 10.371094 13.703125 10.371094 13.699219 10.367188 13.699219 C 10.105469 13.332031 9.277344 13.359375 9.269531 13.359375 C 9.265625 13.359375 9.261719 13.355469 9.261719 13.351562 C 9.261719 13.34375 9.265625 13.339844 9.269531 13.339844 C 9.273438 13.339844 9.484375 13.332031 9.722656 13.371094 C 9.949219 13.40625 10.242188 13.492188 10.382812 13.6875 C 10.386719 13.691406 10.386719 13.695312 10.378906 13.699219 C 10.378906 13.699219 10.378906 13.703125 10.375 13.703125 Z M 10.375 13.703125 " fill-opacity="1" fill-rule="nonzero"/><path fill="#c47249" d="M 7.144531 13.9375 C 7.21875 13.886719 7.308594 13.867188 7.617188 13.914062 C 7.800781 13.941406 8.097656 13.871094 8.179688 13.855469 L 8.148438 13.273438 C 8.03125 13.242188 7.835938 13.113281 7.691406 13.042969 C 7.507812 12.957031 7.308594 12.808594 7.15625 12.863281 C 6.898438 12.949219 6.589844 13.105469 6.625 13.203125 C 6.664062 13.304688 6.972656 13.207031 6.972656 13.207031 C 6.972656 13.207031 6.816406 13.292969 6.835938 13.398438 C 6.855469 13.507812 6.992188 13.542969 6.992188 13.542969 C 6.917969 13.652344 7.050781 13.753906 7.050781 13.753906 C 6.992188 13.855469 7.085938 13.976562 7.144531 13.9375 Z M 7.144531 13.9375 " fill-opacity="1" fill-rule="nonzero"/><path fill="#192351" d="M 7.050781 13.765625 C 7.050781 13.765625 7.046875 13.761719 7.046875 13.761719 C 7.042969 13.757812 7.042969 13.75 7.046875 13.746094 C 7.050781 13.742188 7.164062 13.652344 7.335938 13.640625 C 7.335938 13.640625 7.335938 13.640625 7.339844 13.640625 C 7.34375 13.640625 7.347656 13.644531 7.347656 13.648438 C 7.347656 13.652344 7.34375 13.65625 7.339844 13.65625 C 7.171875 13.667969 7.058594 13.761719 7.058594 13.761719 C 7.054688 13.761719 7.054688 13.765625 7.050781 13.765625 Z M 7.050781 13.765625 " fill-opacity="1" fill-rule="nonzero"/><path fill="#192351" d="M 6.992188 13.550781 C 6.988281 13.550781 6.988281 13.550781 6.988281 13.546875 C 6.984375 13.542969 6.984375 13.539062 6.988281 13.535156 C 6.992188 13.53125 7.132812 13.40625 7.296875 13.378906 C 7.300781 13.378906 7.304688 13.382812 7.308594 13.386719 C 7.308594 13.390625 7.304688 13.394531 7.300781 13.398438 C 7.140625 13.421875 7 13.546875 7 13.546875 C 6.996094 13.550781 6.996094 13.550781 6.992188 13.550781 Z M 6.992188 13.550781 " fill-opacity="1" fill-rule="nonzero"/><path fill="#192351" d="M 6.972656 13.214844 C 6.96875 13.214844 6.964844 13.214844 6.964844 13.210938 C 6.960938 13.207031 6.964844 13.203125 6.96875 13.199219 C 6.96875 13.199219 7.113281 13.117188 7.285156 13.117188 C 7.289062 13.117188 7.296875 13.121094 7.296875 13.125 C 7.296875 13.132812 7.292969 13.136719 7.285156 13.136719 C 7.117188 13.136719 6.976562 13.214844 6.976562 13.214844 C 6.976562 13.214844 6.972656 13.214844 6.972656 13.214844 Z M 6.972656 13.214844 " fill-opacity="1" fill-rule="nonzero"/><path fill="#192351" d="M 7.699219 13.996094 L 5.210938 13.996094 L 5.210938 13.792969 L 7.523438 13.792969 C 7.621094 13.792969 7.699219 13.871094 7.699219 13.972656 Z M 7.699219 13.996094 " fill-opacity="1" fill-rule="nonzero"/><path fill="#192351" d="M 2.625 13.996094 L 6.792969 13.996094 L 6.375 11.269531 L 2.207031 11.269531 Z M 2.625 13.996094 " fill-opacity="1" fill-rule="nonzero"/><path fill="#ffffff" d="M 4.722656 12.6875 C 4.738281 12.777344 4.722656 12.855469 4.679688 12.925781 C 4.632812 13 4.574219 13.042969 4.492188 13.058594 C 4.414062 13.070312 4.339844 13.054688 4.273438 13.003906 C 4.207031 12.949219 4.164062 12.882812 4.148438 12.792969 C 4.132812 12.707031 4.148438 12.628906 4.195312 12.554688 C 4.238281 12.484375 4.300781 12.441406 4.378906 12.425781 C 4.457031 12.410156 4.53125 12.429688 4.597656 12.480469 C 4.667969 12.53125 4.707031 12.601562 4.722656 12.6875 Z M 4.722656 12.6875 " fill-opacity="1" fill-rule="nonzero"/><path fill="#c47249" d="M 3.34375 13.996094 C 3.34375 13.996094 3.378906 13.980469 3.363281 13.820312 C 3.347656 13.664062 3.394531 13.507812 3.546875 13.523438 C 3.546875 13.523438 3.671875 13.367188 3.808594 13.523438 C 3.808594 13.523438 3.960938 13.453125 4.0625 13.582031 C 4.0625 13.582031 4.191406 13.511719 4.257812 13.605469 C 4.320312 13.703125 4.351562 13.980469 4.257812 14.050781 C 4.160156 14.121094 3.914062 14.15625 3.691406 14.152344 C 3.464844 14.148438 3.34375 13.996094 3.34375 13.996094 Z M 3.34375 13.996094 " fill-opacity="1" fill-rule="nonzero"/><path fill="#192351" d="M 3.546875 13.964844 C 3.542969 13.964844 3.542969 13.960938 3.542969 13.960938 C 3.535156 13.960938 3.535156 13.953125 3.539062 13.949219 C 3.625 13.792969 3.539062 13.53125 3.535156 13.527344 C 3.535156 13.523438 3.539062 13.519531 3.542969 13.515625 C 3.546875 13.515625 3.550781 13.515625 3.554688 13.523438 C 3.558594 13.535156 3.648438 13.796875 3.554688 13.960938 C 3.550781 13.960938 3.546875 13.964844 3.546875 13.964844 Z M 3.546875 13.964844 " fill-opacity="1" fill-rule="nonzero"/><path fill="#192351" d="M 3.808594 13.976562 C 3.804688 13.976562 3.804688 13.976562 3.804688 13.976562 C 3.800781 13.972656 3.796875 13.96875 3.796875 13.964844 C 3.875 13.785156 3.796875 13.527344 3.796875 13.527344 C 3.796875 13.519531 3.800781 13.515625 3.804688 13.515625 C 3.808594 13.511719 3.8125 13.515625 3.816406 13.519531 C 3.820312 13.53125 3.894531 13.785156 3.816406 13.972656 C 3.8125 13.976562 3.8125 13.976562 3.808594 13.976562 Z M 3.808594 13.976562 " fill-opacity="1" fill-rule="nonzero"/><path fill="#192351" d="M 4.03125 14 C 4.03125 14 4.027344 14 4.027344 14 C 4.023438 13.996094 4.023438 13.992188 4.023438 13.988281 C 4.117188 13.84375 4.054688 13.585938 4.054688 13.585938 C 4.054688 13.582031 4.054688 13.574219 4.0625 13.574219 C 4.066406 13.574219 4.070312 13.574219 4.070312 13.582031 C 4.074219 13.589844 4.136719 13.847656 4.039062 13.996094 C 4.039062 14 4.035156 14 4.03125 14 Z M 4.03125 14 " fill-opacity="1" fill-rule="nonzero"/><path fill="#192351" d="M 24.332031 19.636719 L 11.734375 19.636719 C 11.496094 19.636719 11.339844 19.429688 11.386719 19.171875 L 13.53125 6.445312 C 13.570312 6.214844 13.785156 6.007812 14.015625 5.984375 L 26.058594 4.757812 C 26.328125 4.730469 26.527344 4.914062 26.496094 5.164062 L 24.90625 19.125 C 24.875 19.40625 24.617188 19.636719 24.332031 19.636719 Z M 24.332031 19.636719 " fill-opacity="1" fill-rule="nonzero"/><path fill="#ffffff" d="M 24 19.300781 L 11.402344 19.300781 C 11.164062 19.300781 11.007812 19.09375 11.050781 18.835938 L 13.199219 6.105469 C 13.238281 5.875 13.453125 5.671875 13.679688 5.648438 L 25.722656 4.421875 C 25.996094 4.394531 26.191406 4.574219 26.164062 4.824219 L 24.574219 18.785156 C 24.542969 19.070312 24.285156 19.300781 24 19.300781 Z M 24 19.300781 " fill-opacity="1" fill-rule="nonzero"/><path fill="#dae4fe" d="M 23.882812 18.589844 L 11.675781 18.652344 L 13.535156 7.460938 L 25.304688 6.421875 Z M 23.882812 18.589844 " fill-opacity="1" fill-rule="nonzero"/><path fill="#4b6fdd" d="M 14.144531 6.472656 C 14.125 6.578125 14.023438 6.675781 13.917969 6.683594 C 13.8125 6.695312 13.742188 6.613281 13.761719 6.507812 C 13.777344 6.402344 13.878906 6.304688 13.984375 6.296875 C 14.089844 6.285156 14.160156 6.363281 14.144531 6.472656 Z M 14.144531 6.472656 " fill-opacity="1" fill-rule="nonzero"/><path fill="#4b6fdd" d="M 15.484375 6.34375 C 15.46875 6.453125 15.367188 6.546875 15.257812 6.558594 C 15.152344 6.566406 15.078125 6.488281 15.09375 6.378906 C 15.113281 6.273438 15.214844 6.175781 15.320312 6.164062 C 15.429688 6.15625 15.503906 6.234375 15.484375 6.34375 Z M 15.484375 6.34375 " fill-opacity="1" fill-rule="nonzero"/><path fill="#4b6fdd" d="M 14.8125 6.40625 C 14.792969 6.515625 14.691406 6.613281 14.585938 6.621094 C 14.480469 6.632812 14.40625 6.554688 14.425781 6.445312 C 14.441406 6.335938 14.542969 6.242188 14.648438 6.230469 C 14.757812 6.222656 14.828125 6.300781 14.8125 6.40625 Z M 14.8125 6.40625 " fill-opacity="1" fill-rule="nonzero"/><path fill="#4b6fdd" d="M 21.753906 16.375 L 14.09375 16.535156 L 14.292969 15.28125 L 21.921875 15.054688 Z M 21.753906 16.375 " fill-opacity="1" fill-rule="nonzero"/><path fill="#ffffff" d="M 17.078125 15.460938 L 17.023438 15.972656 L 17.21875 15.972656 L 17.203125 16.109375 L 16.839844 16.109375 L 16.90625 15.460938 Z M 17.078125 15.460938 " fill-opacity="1" fill-rule="nonzero"/><path fill="#ffffff" d="M 17.5625 16.117188 C 17.390625 16.117188 17.261719 15.976562 17.28125 15.78125 C 17.300781 15.585938 17.457031 15.449219 17.632812 15.449219 C 17.808594 15.449219 17.933594 15.589844 17.914062 15.78125 C 17.894531 15.976562 17.738281 16.117188 17.5625 16.117188 Z M 17.582031 15.949219 C 17.671875 15.949219 17.730469 15.882812 17.742188 15.785156 C 17.75 15.679688 17.703125 15.617188 17.617188 15.617188 C 17.527344 15.617188 17.46875 15.679688 17.457031 15.785156 C 17.445312 15.882812 17.492188 15.949219 17.582031 15.949219 Z M 17.582031 15.949219 " fill-opacity="1" fill-rule="nonzero"/><path fill="#ffffff" d="M 18.582031 15.675781 L 18.394531 15.675781 C 18.378906 15.640625 18.347656 15.621094 18.300781 15.621094 C 18.214844 15.621094 18.15625 15.683594 18.144531 15.785156 C 18.132812 15.894531 18.179688 15.953125 18.28125 15.953125 C 18.34375 15.953125 18.386719 15.925781 18.417969 15.871094 L 18.246094 15.871094 L 18.261719 15.738281 L 18.582031 15.738281 L 18.5625 15.914062 C 18.515625 16.007812 18.410156 16.113281 18.25 16.113281 C 18.058594 16.113281 17.949219 15.976562 17.96875 15.785156 C 17.992188 15.589844 18.128906 15.453125 18.316406 15.453125 C 18.472656 15.453125 18.570312 15.539062 18.582031 15.675781 Z M 18.582031 15.675781 " fill-opacity="1" fill-rule="nonzero"/><path fill="#ffffff" d="M 18.6875 15.460938 L 18.859375 15.460938 L 18.792969 16.109375 L 18.621094 16.109375 Z M 18.6875 15.460938 " fill-opacity="1" fill-rule="nonzero"/><path fill="#ffffff" d="M 19.527344 15.460938 L 19.460938 16.109375 L 19.289062 16.109375 L 19.097656 15.746094 L 19.0625 16.109375 L 18.890625 16.109375 L 18.957031 15.460938 L 19.128906 15.460938 L 19.316406 15.828125 L 19.355469 15.460938 Z M 19.527344 15.460938 " fill-opacity="1" fill-rule="nonzero"/><path fill="#ffffff" d="M 20.300781 9.28125 C 20.191406 10.085938 19.4375 10.785156 18.625 10.835938 C 17.820312 10.882812 17.269531 10.277344 17.386719 9.488281 C 17.5 8.703125 18.230469 8.015625 19.027344 7.949219 C 19.832031 7.886719 20.40625 8.476562 20.300781 9.28125 Z M 20.300781 9.28125 " fill-opacity="1" fill-rule="nonzero"/><path fill="#192351" d="M 18.535156 10.867188 C 18.171875 10.867188 17.855469 10.734375 17.636719 10.488281 C 17.402344 10.230469 17.300781 9.871094 17.359375 9.484375 C 17.476562 8.691406 18.222656 7.992188 19.023438 7.925781 C 19.429688 7.894531 19.789062 8.019531 20.035156 8.285156 C 20.273438 8.539062 20.378906 8.894531 20.324219 9.285156 C 20.214844 10.105469 19.453125 10.8125 18.625 10.863281 C 18.59375 10.863281 18.5625 10.867188 18.535156 10.867188 Z M 19.148438 7.972656 C 19.109375 7.972656 19.070312 7.972656 19.03125 7.976562 C 18.25 8.042969 17.523438 8.71875 17.410156 9.492188 C 17.355469 9.863281 17.449219 10.207031 17.671875 10.453125 C 17.902344 10.707031 18.238281 10.835938 18.621094 10.8125 C 19.425781 10.761719 20.167969 10.074219 20.273438 9.277344 C 20.324219 8.90625 20.226562 8.5625 19.996094 8.320312 C 19.789062 8.09375 19.488281 7.972656 19.148438 7.972656 Z M 19.148438 7.972656 " fill-opacity="1" fill-rule="nonzero"/><path fill="#192351" d="M 19.355469 8.988281 C 19.320312 9.25 19.074219 9.476562 18.8125 9.492188 C 18.550781 9.511719 18.367188 9.316406 18.40625 9.058594 C 18.441406 8.800781 18.683594 8.574219 18.945312 8.554688 C 19.207031 8.535156 19.394531 8.726562 19.355469 8.988281 Z M 19.355469 8.988281 " fill-opacity="1" fill-rule="nonzero"/><path fill="#192351" d="M 19.496094 10.171875 L 17.929688 10.273438 L 17.984375 9.875 C 18.003906 9.742188 18.125 9.628906 18.257812 9.621094 L 19.34375 9.546875 C 19.476562 9.535156 19.570312 9.636719 19.550781 9.765625 Z M 19.496094 10.171875 " fill-opacity="1" fill-rule="nonzero"/><path fill="#ffffff" d="M 22.003906 13.949219 L 14.511719 14.230469 L 14.675781 13.195312 L 22.140625 12.859375 Z M 22.003906 13.949219 " fill-opacity="1" fill-rule="nonzero"/><path fill="#192351" d="M 17.296875 13.578125 L 17.230469 13.683594 L 17.078125 13.683594 L 17.230469 13.464844 L 17.113281 13.265625 L 17.269531 13.265625 L 17.332031 13.371094 L 17.398438 13.265625 L 17.550781 13.265625 L 17.394531 13.480469 L 17.511719 13.683594 L 17.355469 13.683594 Z M 17.296875 13.578125 " fill-opacity="1" fill-rule="nonzero"/><path fill="#192351" d="M 17.742188 13.578125 L 17.671875 13.683594 L 17.519531 13.683594 L 17.675781 13.464844 L 17.558594 13.265625 L 17.714844 13.265625 L 17.773438 13.371094 L 17.84375 13.265625 L 17.996094 13.265625 L 17.835938 13.480469 L 17.957031 13.683594 L 17.800781 13.683594 Z M 17.742188 13.578125 " fill-opacity="1" fill-rule="nonzero"/><path fill="#192351" d="M 18.183594 13.578125 L 18.117188 13.683594 L 17.964844 13.683594 L 18.117188 13.464844 L 18.003906 13.265625 L 18.15625 13.265625 L 18.21875 13.371094 L 18.285156 13.265625 L 18.4375 13.265625 L 18.28125 13.480469 L 18.398438 13.683594 L 18.246094 13.683594 Z M 18.183594 13.578125 " fill-opacity="1" fill-rule="nonzero"/><path fill="#192351" d="M 18.628906 13.578125 L 18.558594 13.683594 L 18.410156 13.683594 L 18.5625 13.464844 L 18.445312 13.265625 L 18.601562 13.265625 L 18.660156 13.371094 L 18.730469 13.265625 L 18.882812 13.265625 L 18.722656 13.480469 L 18.84375 13.683594 L 18.6875 13.683594 Z M 18.628906 13.578125 " fill-opacity="1" fill-rule="nonzero"/><path fill="#192351" d="M 19.070312 13.578125 L 19.003906 13.683594 L 18.851562 13.683594 L 19.007812 13.464844 L 18.890625 13.265625 L 19.046875 13.265625 L 19.105469 13.371094 L 19.171875 13.265625 L 19.324219 13.265625 L 19.167969 13.480469 L 19.285156 13.683594 L 19.132812 13.683594 Z M 19.070312 13.578125 " fill-opacity="1" fill-rule="nonzero"/><path fill="#192351" d="M 19.515625 13.578125 L 19.449219 13.683594 L 19.296875 13.683594 L 19.449219 13.464844 L 19.332031 13.265625 L 19.488281 13.265625 L 19.546875 13.371094 L 19.617188 13.265625 L 19.769531 13.265625 L 19.613281 13.480469 L 19.730469 13.683594 L 19.574219 13.683594 Z M 19.515625 13.578125 " fill-opacity="1" fill-rule="nonzero"/><path fill="#ffffff" d="M 22.207031 12.339844 L 14.75 12.703125 L 14.914062 11.683594 L 22.34375 11.261719 Z M 22.207031 12.339844 " fill-opacity="1" fill-rule="nonzero"/><path fill="#dae4fe" d="M 20.28125 11.980469 L 16.652344 12.167969 L 16.675781 12.023438 L 20.300781 11.832031 Z M 20.28125 11.980469 " fill-opacity="1" fill-rule="nonzero"/><path fill="#192351" d="M 25.90625 17.304688 C 26.121094 17.53125 26.289062 17.796875 26.398438 18.09375 C 26.507812 18.394531 26.558594 18.707031 26.542969 19.035156 C 26.53125 19.359375 26.457031 19.675781 26.320312 19.976562 C 26.183594 20.28125 26 20.550781 25.761719 20.785156 C 25.523438 21.019531 25.253906 21.199219 24.953125 21.328125 C 24.648438 21.457031 24.335938 21.523438 24.015625 21.527344 C 23.695312 21.535156 23.386719 21.476562 23.09375 21.355469 C 22.800781 21.234375 22.546875 21.058594 22.328125 20.832031 C 22.109375 20.605469 21.945312 20.339844 21.835938 20.042969 C 21.722656 19.742188 21.675781 19.429688 21.6875 19.101562 C 21.703125 18.777344 21.777344 18.460938 21.914062 18.15625 C 22.046875 17.855469 22.234375 17.585938 22.472656 17.351562 C 22.707031 17.117188 22.976562 16.9375 23.28125 16.808594 C 23.582031 16.679688 23.894531 16.609375 24.21875 16.605469 C 24.539062 16.601562 24.847656 16.660156 25.140625 16.78125 C 25.429688 16.902344 25.6875 17.074219 25.90625 17.304688 Z M 25.90625 17.304688 " fill-opacity="1" fill-rule="nonzero"/><path fill="#ffffff" d="M 25.582031 17.121094 C 25.800781 17.347656 25.964844 17.609375 26.074219 17.910156 C 26.1875 18.210938 26.234375 18.523438 26.222656 18.847656 C 26.207031 19.175781 26.132812 19.492188 25.996094 19.792969 C 25.863281 20.097656 25.675781 20.367188 25.4375 20.601562 C 25.203125 20.832031 24.929688 21.015625 24.628906 21.144531 C 24.328125 21.273438 24.015625 21.339844 23.691406 21.34375 C 23.371094 21.347656 23.0625 21.289062 22.769531 21.171875 C 22.476562 21.050781 22.222656 20.875 22.003906 20.648438 C 21.785156 20.421875 21.621094 20.15625 21.511719 19.855469 C 21.402344 19.558594 21.351562 19.242188 21.367188 18.917969 C 21.378906 18.589844 21.453125 18.277344 21.589844 17.972656 C 21.722656 17.667969 21.910156 17.402344 22.148438 17.167969 C 22.386719 16.933594 22.65625 16.75 22.957031 16.621094 C 23.261719 16.492188 23.570312 16.425781 23.894531 16.421875 C 24.214844 16.417969 24.523438 16.476562 24.816406 16.597656 C 25.109375 16.71875 25.363281 16.890625 25.582031 17.121094 Z M 25.582031 17.121094 " fill-opacity="1" fill-rule="nonzero"/><path fill="#192351" d="M 23.65625 21.386719 C 23 21.386719 22.394531 21.125 21.953125 20.652344 C 21.511719 20.179688 21.289062 19.550781 21.324219 18.878906 C 21.402344 17.5 22.570312 16.378906 23.925781 16.378906 C 24.585938 16.378906 25.191406 16.640625 25.632812 17.113281 C 26.074219 17.585938 26.296875 18.214844 26.257812 18.886719 C 26.183594 20.265625 25.015625 21.386719 23.65625 21.386719 Z M 23.925781 16.460938 C 22.609375 16.460938 21.480469 17.550781 21.40625 18.886719 C 21.371094 19.53125 21.585938 20.140625 22.011719 20.597656 C 22.4375 21.050781 23.023438 21.304688 23.65625 21.304688 C 24.972656 21.304688 26.105469 20.214844 26.179688 18.878906 C 26.214844 18.234375 26 17.625 25.574219 17.171875 C 25.148438 16.714844 24.5625 16.460938 23.925781 16.460938 Z M 23.925781 16.460938 " fill-opacity="1" fill-rule="nonzero"/><path fill="#4b6fdd" d="M 22.601562 18.417969 L 22.574219 18.359375 L 23.859375 17.683594 L 23.875 17.691406 L 25.066406 18.359375 L 25.035156 18.417969 L 23.855469 17.761719 Z M 22.601562 18.417969 " fill-opacity="1" fill-rule="nonzero"/><path fill="#4b6fdd" d="M 24.726562 18.386719 L 24.632812 20.082031 L 24.921875 20.082031 L 25.015625 18.386719 Z M 24.96875 18.546875 L 24.894531 19.921875 L 24.855469 19.921875 L 24.929688 18.546875 Z M 24.882812 18.546875 L 24.804688 19.921875 L 24.765625 19.921875 L 24.84375 18.546875 Z M 24.792969 18.546875 L 24.71875 19.921875 L 24.679688 19.921875 L 24.753906 18.546875 Z M 24.792969 18.546875 " fill-opacity="1" fill-rule="nonzero"/><path fill="#4b6fdd" d="M 25.046875 18.472656 L 24.6875 18.472656 L 24.691406 18.386719 L 25.050781 18.386719 Z M 25.046875 18.472656 " fill-opacity="1" fill-rule="nonzero"/><path fill="#4b6fdd" d="M 24.957031 20.082031 L 24.597656 20.082031 L 24.601562 20 L 24.960938 20 Z M 24.957031 20.082031 " fill-opacity="1" fill-rule="nonzero"/><path fill="#4b6fdd" d="M 24.257812 18.386719 L 24.164062 20.082031 L 24.453125 20.082031 L 24.546875 18.386719 Z M 24.503906 18.546875 L 24.425781 19.921875 L 24.386719 19.921875 L 24.460938 18.546875 Z M 24.414062 18.546875 L 24.339844 19.921875 L 24.300781 19.921875 L 24.375 18.546875 Z M 24.328125 18.546875 L 24.25 19.921875 L 24.210938 19.921875 L 24.289062 18.546875 Z M 24.328125 18.546875 " fill-opacity="1" fill-rule="nonzero"/><path fill="#4b6fdd" d="M 24.578125 18.472656 L 24.21875 18.472656 L 24.222656 18.386719 L 24.582031 18.386719 Z M 24.578125 18.472656 " fill-opacity="1" fill-rule="nonzero"/><path fill="#4b6fdd" d="M 24.488281 20.082031 L 24.128906 20.082031 L 24.136719 20 L 24.496094 20 Z M 24.488281 20.082031 " fill-opacity="1" fill-rule="nonzero"/><path fill="#4b6fdd" d="M 23.15625 18.386719 L 23.0625 20.082031 L 23.351562 20.082031 L 23.445312 18.386719 Z M 23.398438 18.546875 L 23.324219 19.921875 L 23.285156 19.921875 L 23.359375 18.546875 Z M 23.3125 18.546875 L 23.238281 19.921875 L 23.195312 19.921875 L 23.273438 18.546875 Z M 23.226562 18.546875 L 23.148438 19.921875 L 23.109375 19.921875 L 23.183594 18.546875 Z M 23.226562 18.546875 " fill-opacity="1" fill-rule="nonzero"/><path fill="#4b6fdd" d="M 23.476562 18.472656 L 23.117188 18.472656 L 23.121094 18.386719 L 23.480469 18.386719 Z M 23.476562 18.472656 " fill-opacity="1" fill-rule="nonzero"/><path fill="#4b6fdd" d="M 23.386719 20.082031 L 23.027344 20.082031 L 23.03125 20 L 23.390625 20 Z M 23.386719 20.082031 " fill-opacity="1" fill-rule="nonzero"/><path fill="#4b6fdd" d="M 22.6875 18.386719 L 22.597656 20.082031 L 22.886719 20.082031 L 22.976562 18.386719 Z M 22.84375 18.546875 L 22.769531 19.921875 L 22.730469 19.921875 L 22.804688 18.546875 Z M 22.757812 18.546875 L 22.683594 19.921875 L 22.640625 19.921875 L 22.71875 18.546875 Z M 22.757812 18.546875 " fill-opacity="1" fill-rule="nonzero"/><path fill="#4b6fdd" d="M 23.007812 18.472656 L 22.648438 18.472656 L 22.652344 18.386719 L 23.011719 18.386719 Z M 23.007812 18.472656 " fill-opacity="1" fill-rule="nonzero"/><path fill="#4b6fdd" d="M 22.917969 20.082031 L 22.5625 20.082031 L 22.566406 20 L 22.925781 20 Z M 22.917969 20.082031 " fill-opacity="1" fill-rule="nonzero"/><path fill="#4b6fdd" d="M 24 19.269531 L 23.957031 20.070312 C 23.957031 20.074219 23.949219 20.082031 23.945312 20.082031 L 23.902344 20.082031 C 23.90625 20.082031 23.910156 20.078125 23.910156 20.070312 L 23.957031 19.273438 C 23.960938 19.179688 23.890625 19.101562 23.796875 19.101562 C 23.703125 19.101562 23.621094 19.179688 23.617188 19.273438 L 23.574219 20.070312 C 23.574219 20.078125 23.578125 20.082031 23.582031 20.082031 L 23.539062 20.082031 C 23.535156 20.082031 23.527344 20.074219 23.527344 20.070312 L 23.574219 19.269531 C 23.578125 19.148438 23.679688 19.050781 23.796875 19.050781 C 23.914062 19.050781 24.007812 19.148438 24 19.269531 Z M 24 19.269531 " fill-opacity="1" fill-rule="nonzero"/><path fill="#4b6fdd" d="M 23.828125 18.511719 C 23.710938 18.511719 23.609375 18.609375 23.605469 18.726562 L 23.597656 18.855469 C 23.597656 18.863281 23.601562 18.867188 23.605469 18.867188 L 24.011719 18.867188 C 24.015625 18.867188 24.023438 18.863281 24.023438 18.855469 L 24.03125 18.726562 C 24.035156 18.609375 23.945312 18.511719 23.828125 18.511719 Z M 23.828125 18.511719 " fill-opacity="1" fill-rule="nonzero"/><path fill="#4b6fdd" d="M 24.226562 18.984375 L 23.414062 18.984375 L 23.414062 18.953125 L 24.226562 18.953125 Z M 24.226562 18.984375 " fill-opacity="1" fill-rule="nonzero"/><path fill="#4b6fdd" d="M 25.0625 18.425781 L 22.570312 18.425781 C 22.550781 18.425781 22.535156 18.410156 22.539062 18.390625 L 22.539062 18.386719 C 22.539062 18.367188 22.554688 18.351562 22.574219 18.351562 L 25.066406 18.351562 C 25.085938 18.351562 25.101562 18.367188 25.101562 18.386719 L 25.101562 18.390625 C 25.101562 18.410156 25.082031 18.425781 25.0625 18.425781 Z M 25.0625 18.425781 " fill-opacity="1" fill-rule="nonzero"/><path fill="#4b6fdd" d="M 23.824219 18.214844 C 23.78125 18.210938 23.753906 18.1875 23.753906 18.144531 L 23.8125 18.144531 C 23.8125 18.160156 23.816406 18.167969 23.828125 18.171875 L 23.832031 18.121094 C 23.796875 18.109375 23.757812 18.097656 23.761719 18.046875 C 23.761719 18.003906 23.796875 17.980469 23.839844 17.980469 L 23.84375 17.953125 L 23.863281 17.953125 L 23.859375 17.980469 C 23.902344 17.984375 23.929688 18.007812 23.929688 18.046875 L 23.871094 18.046875 C 23.871094 18.035156 23.867188 18.027344 23.859375 18.023438 L 23.855469 18.074219 C 23.886719 18.085938 23.929688 18.097656 23.925781 18.148438 C 23.925781 18.183594 23.894531 18.214844 23.84375 18.214844 L 23.84375 18.242188 L 23.824219 18.242188 Z M 23.835938 18.070312 L 23.835938 18.023438 C 23.824219 18.023438 23.816406 18.03125 23.816406 18.042969 C 23.816406 18.054688 23.824219 18.0625 23.835938 18.070312 Z M 23.851562 18.125 L 23.847656 18.171875 C 23.859375 18.171875 23.871094 18.164062 23.871094 18.148438 C 23.871094 18.136719 23.863281 18.132812 23.851562 18.125 Z M 23.851562 18.125 " fill-opacity="1" fill-rule="nonzero"/><path fill="#192351" d="M 13.1875 3.882812 C 13.1875 3.882812 12.382812 4.542969 10.863281 4.503906 L 10.863281 7.09375 C 10.863281 7.09375 11.902344 9.535156 13.1875 9.535156 C 14.472656 9.535156 15.507812 7.09375 15.507812 7.09375 L 15.507812 4.503906 C 13.988281 4.542969 13.1875 3.882812 13.1875 3.882812 Z M 13.1875 3.882812 " fill-opacity="1" fill-rule="nonzero"/><path fill="#4b6fdd" d="M 15.292969 4.722656 L 15.292969 7.046875 C 15.222656 7.207031 14.980469 7.710938 14.640625 8.207031 C 14.285156 8.71875 13.746094 9.332031 13.1875 9.332031 L 13.183594 9.332031 C 12.625 9.332031 12.085938 8.71875 11.730469 8.207031 C 11.390625 7.710938 11.148438 7.207031 11.078125 7.042969 L 11.078125 4.722656 C 12.160156 4.695312 12.875 4.339844 13.183594 4.144531 C 13.5 4.339844 14.210938 4.695312 15.292969 4.722656 Z M 15.292969 4.722656 " fill-opacity="1" fill-rule="nonzero"/><path fill="#192351" d="M 15.292969 4.722656 L 15.292969 7.046875 C 15.222656 7.207031 14.980469 7.710938 14.640625 8.207031 C 14.285156 8.71875 13.746094 9.332031 13.1875 9.332031 L 13.183594 9.332031 L 13.183594 4.144531 C 13.5 4.339844 14.210938 4.695312 15.292969 4.722656 Z M 15.292969 4.722656 " fill-opacity="0.2" fill-rule="nonzero"/><path fill="#ffffff" d="M 12.484375 7.292969 L 12.109375 6.449219 C 12.070312 6.363281 12.109375 6.261719 12.191406 6.222656 C 12.277344 6.183594 12.375 6.222656 12.414062 6.308594 L 12.640625 6.820312 L 14.265625 5.921875 C 14.347656 5.878906 14.449219 5.910156 14.492188 5.988281 C 14.535156 6.074219 14.507812 6.175781 14.425781 6.21875 Z M 12.484375 7.292969 " fill-opacity="1" fill-rule="nonzero"/><g clip-path="url(#1ee36e4152)"><path fill="#192351" d="M 0.488281 27.113281 L 28.382812 27.113281 L 28.382812 27.394531 L 0.488281 27.394531 Z M 0.488281 27.113281 " fill-opacity="1" fill-rule="nonzero"/></g><path fill="#4b6fdd" d="M 16.300781 23.078125 L 16.300781 23.863281 C 16.300781 23.933594 16.246094 23.988281 16.171875 23.988281 L 12.300781 23.988281 C 12.230469 23.988281 12.175781 23.933594 12.175781 23.863281 L 12.175781 23.078125 C 12.175781 23.007812 12.230469 22.949219 12.300781 22.949219 L 16.171875 22.949219 C 16.246094 22.949219 16.300781 23.007812 16.300781 23.078125 Z M 16.300781 23.078125 " fill-opacity="1" fill-rule="nonzero"/><path fill="#192351" d="M 16.300781 23.792969 L 16.300781 23.863281 C 16.300781 23.933594 16.246094 23.988281 16.171875 23.988281 L 12.300781 23.988281 C 12.230469 23.988281 12.175781 23.933594 12.175781 23.863281 L 12.175781 23.792969 Z M 16.300781 23.792969 " fill-opacity="1" fill-rule="nonzero"/><path fill="#192351" d="M 12.617188 23.703125 C 12.601562 23.703125 12.589844 23.691406 12.589844 23.675781 L 12.589844 23.21875 C 12.589844 23.203125 12.601562 23.191406 12.617188 23.191406 C 12.628906 23.191406 12.640625 23.203125 12.640625 23.21875 L 12.640625 23.675781 C 12.640625 23.691406 12.628906 23.703125 12.617188 23.703125 Z M 12.617188 23.703125 " fill-opacity="1" fill-rule="nonzero"/><path fill="#192351" d="M 13.15625 23.703125 C 13.140625 23.703125 13.128906 23.691406 13.128906 23.675781 L 13.128906 23.21875 C 13.128906 23.203125 13.140625 23.191406 13.15625 23.191406 C 13.171875 23.191406 13.183594 23.203125 13.183594 23.21875 L 13.183594 23.675781 C 13.183594 23.691406 13.171875 23.703125 13.15625 23.703125 Z M 13.15625 23.703125 " fill-opacity="1" fill-rule="nonzero"/><path fill="#192351" d="M 13.699219 23.703125 C 13.683594 23.703125 13.671875 23.691406 13.671875 23.675781 L 13.671875 23.21875 C 13.671875 23.203125 13.683594 23.191406 13.699219 23.191406 C 13.710938 23.191406 13.722656 23.203125 13.722656 23.21875 L 13.722656 23.675781 C 13.722656 23.691406 13.710938 23.703125 13.699219 23.703125 Z M 13.699219 23.703125 " fill-opacity="1" fill-rule="nonzero"/><path fill="#192351" d="M 14.238281 23.703125 C 14.222656 23.703125 14.210938 23.691406 14.210938 23.675781 L 14.210938 23.21875 C 14.210938 23.203125 14.222656 23.191406 14.238281 23.191406 C 14.253906 23.191406 14.265625 23.203125 14.265625 23.21875 L 14.265625 23.675781 C 14.265625 23.691406 14.253906 23.703125 14.238281 23.703125 Z M 14.238281 23.703125 " fill-opacity="1" fill-rule="nonzero"/><path fill="#192351" d="M 14.777344 23.703125 C 14.765625 23.703125 14.753906 23.691406 14.753906 23.675781 L 14.753906 23.21875 C 14.753906 23.203125 14.765625 23.191406 14.777344 23.191406 C 14.792969 23.191406 14.804688 23.203125 14.804688 23.21875 L 14.804688 23.675781 C 14.804688 23.691406 14.792969 23.703125 14.777344 23.703125 Z M 14.777344 23.703125 " fill-opacity="1" fill-rule="nonzero"/><path fill="#192351" d="M 15.320312 23.703125 C 15.304688 23.703125 15.292969 23.691406 15.292969 23.675781 L 15.292969 23.21875 C 15.292969 23.203125 15.304688 23.191406 15.320312 23.191406 C 15.335938 23.191406 15.347656 23.203125 15.347656 23.21875 L 15.347656 23.675781 C 15.347656 23.691406 15.335938 23.703125 15.320312 23.703125 Z M 15.320312 23.703125 " fill-opacity="1" fill-rule="nonzero"/><path fill="#192351" d="M 15.859375 23.703125 C 15.847656 23.703125 15.835938 23.691406 15.835938 23.675781 L 15.835938 23.21875 C 15.835938 23.203125 15.847656 23.191406 15.859375 23.191406 C 15.875 23.191406 15.886719 23.203125 15.886719 23.21875 L 15.886719 23.675781 C 15.886719 23.691406 15.875 23.703125 15.859375 23.703125 Z M 15.859375 23.703125 " fill-opacity="1" fill-rule="nonzero"/><path fill="#4b6fdd" d="M 15.808594 24.117188 L 15.808594 24.902344 C 15.808594 24.972656 15.75 25.03125 15.679688 25.03125 L 11.808594 25.03125 C 11.738281 25.03125 11.679688 24.972656 11.679688 24.902344 L 11.679688 24.117188 C 11.679688 24.046875 11.738281 23.992188 11.808594 23.992188 L 15.679688 23.992188 C 15.75 23.992188 15.808594 24.046875 15.808594 24.117188 Z M 15.808594 24.117188 " fill-opacity="1" fill-rule="nonzero"/><path fill="#192351" d="M 15.808594 24.832031 L 15.808594 24.902344 C 15.808594 24.972656 15.75 25.03125 15.679688 25.03125 L 11.808594 25.03125 C 11.738281 25.03125 11.679688 24.972656 11.679688 24.902344 L 11.679688 24.832031 Z M 15.808594 24.832031 " fill-opacity="1" fill-rule="nonzero"/><path fill="#192351" d="M 12.121094 24.746094 C 12.105469 24.746094 12.09375 24.730469 12.09375 24.71875 L 12.09375 24.257812 C 12.09375 24.242188 12.105469 24.230469 12.121094 24.230469 C 12.136719 24.230469 12.148438 24.242188 12.148438 24.257812 L 12.148438 24.71875 C 12.148438 24.730469 12.136719 24.746094 12.121094 24.746094 Z M 12.121094 24.746094 " fill-opacity="1" fill-rule="nonzero"/><path fill="#192351" d="M 12.664062 24.746094 C 12.648438 24.746094 12.636719 24.730469 12.636719 24.71875 L 12.636719 24.257812 C 12.636719 24.242188 12.648438 24.230469 12.664062 24.230469 C 12.675781 24.230469 12.6875 24.242188 12.6875 24.257812 L 12.6875 24.71875 C 12.6875 24.730469 12.675781 24.746094 12.664062 24.746094 Z M 12.664062 24.746094 " fill-opacity="1" fill-rule="nonzero"/><path fill="#192351" d="M 13.203125 24.746094 C 13.1875 24.746094 13.175781 24.730469 13.175781 24.71875 L 13.175781 24.257812 C 13.175781 24.242188 13.1875 24.230469 13.203125 24.230469 C 13.21875 24.230469 13.230469 24.242188 13.230469 24.257812 L 13.230469 24.71875 C 13.230469 24.730469 13.21875 24.746094 13.203125 24.746094 Z M 13.203125 24.746094 " fill-opacity="1" fill-rule="nonzero"/><path fill="#192351" d="M 13.746094 24.746094 C 13.730469 24.746094 13.71875 24.730469 13.71875 24.71875 L 13.71875 24.257812 C 13.71875 24.242188 13.730469 24.230469 13.746094 24.230469 C 13.757812 24.230469 13.769531 24.242188 13.769531 24.257812 L 13.769531 24.71875 C 13.769531 24.730469 13.757812 24.746094 13.746094 24.746094 Z M 13.746094 24.746094 " fill-opacity="1" fill-rule="nonzero"/><path fill="#192351" d="M 14.285156 24.746094 C 14.269531 24.746094 14.257812 24.730469 14.257812 24.71875 L 14.257812 24.257812 C 14.257812 24.242188 14.269531 24.230469 14.285156 24.230469 C 14.300781 24.230469 14.3125 24.242188 14.3125 24.257812 L 14.3125 24.71875 C 14.3125 24.730469 14.300781 24.746094 14.285156 24.746094 Z M 14.285156 24.746094 " fill-opacity="1" fill-rule="nonzero"/><path fill="#192351" d="M 14.824219 24.746094 C 14.8125 24.746094 14.800781 24.730469 14.800781 24.71875 L 14.800781 24.257812 C 14.800781 24.242188 14.8125 24.230469 14.824219 24.230469 C 14.839844 24.230469 14.851562 24.242188 14.851562 24.257812 L 14.851562 24.71875 C 14.851562 24.730469 14.839844 24.746094 14.824219 24.746094 Z M 14.824219 24.746094 " fill-opacity="1" fill-rule="nonzero"/><path fill="#192351" d="M 15.367188 24.746094 C 15.351562 24.746094 15.339844 24.730469 15.339844 24.71875 L 15.339844 24.257812 C 15.339844 24.242188 15.351562 24.230469 15.367188 24.230469 C 15.382812 24.230469 15.394531 24.242188 15.394531 24.257812 L 15.394531 24.71875 C 15.394531 24.730469 15.382812 24.746094 15.367188 24.746094 Z M 15.367188 24.746094 " fill-opacity="1" fill-rule="nonzero"/><path fill="#4b6fdd" d="M 16.152344 25.160156 L 16.152344 25.945312 C 16.152344 26.015625 16.09375 26.074219 16.023438 26.074219 L 12.152344 26.074219 C 12.082031 26.074219 12.023438 26.015625 12.023438 25.945312 L 12.023438 25.160156 C 12.023438 25.089844 12.082031 25.03125 12.152344 25.03125 L 16.023438 25.03125 C 16.09375 25.03125 16.152344 25.089844 16.152344 25.160156 Z M 16.152344 25.160156 " fill-opacity="1" fill-rule="nonzero"/><path fill="#192351" d="M 16.152344 25.875 L 16.152344 25.945312 C 16.152344 26.015625 16.09375 26.074219 16.023438 26.074219 L 12.152344 26.074219 C 12.082031 26.074219 12.023438 26.015625 12.023438 25.945312 L 12.023438 25.875 Z M 16.152344 25.875 " fill-opacity="1" fill-rule="nonzero"/><path fill="#192351" d="M 12.464844 25.785156 C 12.453125 25.785156 12.441406 25.773438 12.441406 25.757812 L 12.441406 25.300781 C 12.441406 25.285156 12.453125 25.273438 12.464844 25.273438 C 12.480469 25.273438 12.492188 25.285156 12.492188 25.300781 L 12.492188 25.757812 C 12.492188 25.773438 12.480469 25.785156 12.464844 25.785156 Z M 12.464844 25.785156 " fill-opacity="1" fill-rule="nonzero"/><path fill="#192351" d="M 13.007812 25.785156 C 12.992188 25.785156 12.980469 25.773438 12.980469 25.757812 L 12.980469 25.300781 C 12.980469 25.285156 12.992188 25.273438 13.007812 25.273438 C 13.019531 25.273438 13.035156 25.285156 13.035156 25.300781 L 13.035156 25.757812 C 13.035156 25.773438 13.023438 25.785156 13.007812 25.785156 Z M 13.007812 25.785156 " fill-opacity="1" fill-rule="nonzero"/><path fill="#192351" d="M 13.546875 25.785156 C 13.535156 25.785156 13.523438 25.773438 13.523438 25.757812 L 13.523438 25.300781 C 13.523438 25.285156 13.535156 25.273438 13.546875 25.273438 C 13.5625 25.273438 13.574219 25.285156 13.574219 25.300781 L 13.574219 25.757812 C 13.574219 25.773438 13.5625 25.785156 13.546875 25.785156 Z M 13.546875 25.785156 " fill-opacity="1" fill-rule="nonzero"/><path fill="#192351" d="M 14.089844 25.785156 C 14.074219 25.785156 14.0625 25.773438 14.0625 25.757812 L 14.0625 25.300781 C 14.0625 25.285156 14.074219 25.273438 14.089844 25.273438 C 14.101562 25.273438 14.113281 25.285156 14.113281 25.300781 L 14.113281 25.757812 C 14.117188 25.773438 14.105469 25.785156 14.089844 25.785156 Z M 14.089844 25.785156 " fill-opacity="1" fill-rule="nonzero"/><path fill="#192351" d="M 14.628906 25.785156 C 14.613281 25.785156 14.605469 25.773438 14.605469 25.757812 L 14.605469 25.300781 C 14.605469 25.285156 14.617188 25.273438 14.628906 25.273438 C 14.644531 25.273438 14.65625 25.285156 14.65625 25.300781 L 14.65625 25.757812 C 14.65625 25.773438 14.644531 25.785156 14.628906 25.785156 Z M 14.628906 25.785156 " fill-opacity="1" fill-rule="nonzero"/><path fill="#192351" d="M 15.171875 25.785156 C 15.15625 25.785156 15.144531 25.773438 15.144531 25.757812 L 15.144531 25.300781 C 15.144531 25.285156 15.15625 25.273438 15.171875 25.273438 C 15.183594 25.273438 15.199219 25.285156 15.199219 25.300781 L 15.199219 25.757812 C 15.199219 25.773438 15.183594 25.785156 15.171875 25.785156 Z M 15.171875 25.785156 " fill-opacity="1" fill-rule="nonzero"/><path fill="#192351" d="M 15.710938 25.785156 C 15.699219 25.785156 15.6875 25.773438 15.6875 25.757812 L 15.6875 25.300781 C 15.6875 25.285156 15.699219 25.273438 15.710938 25.273438 C 15.726562 25.273438 15.738281 25.285156 15.738281 25.300781 L 15.738281 25.757812 C 15.738281 25.773438 15.726562 25.785156 15.710938 25.785156 Z M 15.710938 25.785156 " fill-opacity="1" fill-rule="nonzero"/><g clip-path="url(#fa10506559)"><path fill="#4b6fdd" d="M 16.300781 26.203125 L 16.300781 26.984375 C 16.300781 27.054688 16.246094 27.113281 16.171875 27.113281 L 12.300781 27.113281 C 12.230469 27.113281 12.175781 27.054688 12.175781 26.984375 L 12.175781 26.203125 C 12.175781 26.128906 12.230469 26.074219 12.300781 26.074219 L 16.171875 26.074219 C 16.246094 26.074219 16.300781 26.128906 16.300781 26.203125 Z M 16.300781 26.203125 " fill-opacity="1" fill-rule="nonzero"/><path fill="#192351" d="M 16.300781 26.914062 L 16.300781 26.984375 C 16.300781 27.054688 16.246094 27.113281 16.171875 27.113281 L 12.300781 27.113281 C 12.230469 27.113281 12.175781 27.054688 12.175781 26.984375 L 12.175781 26.914062 Z M 16.300781 26.914062 " fill-opacity="1" fill-rule="nonzero"/></g><path fill="#192351" d="M 12.617188 26.824219 C 12.601562 26.824219 12.589844 26.8125 12.589844 26.800781 L 12.589844 26.339844 C 12.589844 26.324219 12.601562 26.3125 12.617188 26.3125 C 12.628906 26.3125 12.640625 26.324219 12.640625 26.339844 L 12.640625 26.800781 C 12.640625 26.8125 12.628906 26.824219 12.617188 26.824219 Z M 12.617188 26.824219 " fill-opacity="1" fill-rule="nonzero"/><path fill="#192351" d="M 13.15625 26.824219 C 13.140625 26.824219 13.128906 26.8125 13.128906 26.800781 L 13.128906 26.339844 C 13.128906 26.324219 13.140625 26.3125 13.15625 26.3125 C 13.171875 26.3125 13.183594 26.324219 13.183594 26.339844 L 13.183594 26.800781 C 13.183594 26.8125 13.171875 26.824219 13.15625 26.824219 Z M 13.15625 26.824219 " fill-opacity="1" fill-rule="nonzero"/><path fill="#192351" d="M 13.699219 26.824219 C 13.683594 26.824219 13.671875 26.8125 13.671875 26.800781 L 13.671875 26.339844 C 13.671875 26.324219 13.683594 26.3125 13.699219 26.3125 C 13.710938 26.3125 13.722656 26.324219 13.722656 26.339844 L 13.722656 26.800781 C 13.722656 26.8125 13.710938 26.824219 13.699219 26.824219 Z M 13.699219 26.824219 " fill-opacity="1" fill-rule="nonzero"/><path fill="#192351" d="M 14.238281 26.824219 C 14.222656 26.824219 14.210938 26.8125 14.210938 26.800781 L 14.210938 26.339844 C 14.210938 26.324219 14.222656 26.3125 14.238281 26.3125 C 14.253906 26.3125 14.265625 26.324219 14.265625 26.339844 L 14.265625 26.800781 C 14.265625 26.8125 14.253906 26.824219 14.238281 26.824219 Z M 14.238281 26.824219 " fill-opacity="1" fill-rule="nonzero"/><path fill="#192351" d="M 14.777344 26.824219 C 14.765625 26.824219 14.753906 26.8125 14.753906 26.800781 L 14.753906 26.339844 C 14.753906 26.324219 14.765625 26.3125 14.777344 26.3125 C 14.792969 26.3125 14.804688 26.324219 14.804688 26.339844 L 14.804688 26.800781 C 14.804688 26.8125 14.792969 26.824219 14.777344 26.824219 Z M 14.777344 26.824219 " fill-opacity="1" fill-rule="nonzero"/><path fill="#192351" d="M 15.320312 26.824219 C 15.304688 26.824219 15.292969 26.8125 15.292969 26.800781 L 15.292969 26.339844 C 15.292969 26.324219 15.304688 26.3125 15.320312 26.3125 C 15.335938 26.3125 15.347656 26.324219 15.347656 26.339844 L 15.347656 26.800781 C 15.347656 26.8125 15.335938 26.824219 15.320312 26.824219 Z M 15.320312 26.824219 " fill-opacity="1" fill-rule="nonzero"/><path fill="#192351" d="M 15.859375 26.824219 C 15.847656 26.824219 15.835938 26.8125 15.835938 26.800781 L 15.835938 26.339844 C 15.835938 26.324219 15.847656 26.3125 15.859375 26.3125 C 15.875 26.3125 15.886719 26.324219 15.886719 26.339844 L 15.886719 26.800781 C 15.886719 26.8125 15.875 26.824219 15.859375 26.824219 Z M 15.859375 26.824219 " fill-opacity="1" fill-rule="nonzero"/><path fill="#4b6fdd" d="M 16.9375 24.117188 L 16.9375 24.902344 C 16.9375 24.972656 16.996094 25.03125 17.066406 25.03125 L 20.9375 25.03125 C 21.007812 25.03125 21.066406 24.972656 21.066406 24.902344 L 21.066406 24.117188 C 21.066406 24.046875 21.007812 23.992188 20.9375 23.992188 L 17.066406 23.992188 C 16.996094 23.992188 16.9375 24.046875 16.9375 24.117188 Z M 16.9375 24.117188 " fill-opacity="1" fill-rule="nonzero"/><path fill="#192351" d="M 16.9375 24.832031 L 16.9375 24.902344 C 16.9375 24.972656 16.996094 25.03125 17.066406 25.03125 L 20.9375 25.03125 C 21.007812 25.03125 21.066406 24.972656 21.066406 24.902344 L 21.066406 24.832031 Z M 16.9375 24.832031 " fill-opacity="1" fill-rule="nonzero"/><path fill="#192351" d="M 20.625 24.746094 C 20.609375 24.746094 20.597656 24.730469 20.597656 24.71875 L 20.597656 24.257812 C 20.597656 24.242188 20.609375 24.230469 20.625 24.230469 C 20.636719 24.230469 20.648438 24.242188 20.648438 24.257812 L 20.648438 24.71875 C 20.648438 24.730469 20.636719 24.746094 20.625 24.746094 Z M 20.625 24.746094 " fill-opacity="1" fill-rule="nonzero"/><path fill="#192351" d="M 20.082031 24.746094 C 20.066406 24.746094 20.054688 24.730469 20.054688 24.71875 L 20.054688 24.257812 C 20.054688 24.242188 20.070312 24.230469 20.082031 24.230469 C 20.097656 24.230469 20.109375 24.242188 20.109375 24.257812 L 20.109375 24.71875 C 20.109375 24.730469 20.097656 24.746094 20.082031 24.746094 Z M 20.082031 24.746094 " fill-opacity="1" fill-rule="nonzero"/><path fill="#192351" d="M 19.542969 24.746094 C 19.527344 24.746094 19.515625 24.730469 19.515625 24.71875 L 19.515625 24.257812 C 19.515625 24.242188 19.527344 24.230469 19.542969 24.230469 C 19.554688 24.230469 19.566406 24.242188 19.566406 24.257812 L 19.566406 24.71875 C 19.566406 24.730469 19.554688 24.746094 19.542969 24.746094 Z M 19.542969 24.746094 " fill-opacity="1" fill-rule="nonzero"/><path fill="#192351" d="M 19 24.746094 C 18.984375 24.746094 18.972656 24.730469 18.972656 24.71875 L 18.972656 24.257812 C 18.972656 24.242188 18.984375 24.230469 19 24.230469 C 19.015625 24.230469 19.027344 24.242188 19.027344 24.257812 L 19.027344 24.71875 C 19.027344 24.730469 19.015625 24.746094 19 24.746094 Z M 19 24.746094 " fill-opacity="1" fill-rule="nonzero"/><path fill="#192351" d="M 18.460938 24.746094 C 18.445312 24.746094 18.433594 24.730469 18.433594 24.71875 L 18.433594 24.257812 C 18.433594 24.242188 18.445312 24.230469 18.460938 24.230469 C 18.472656 24.230469 18.484375 24.242188 18.484375 24.257812 L 18.484375 24.71875 C 18.484375 24.730469 18.472656 24.746094 18.460938 24.746094 Z M 18.460938 24.746094 " fill-opacity="1" fill-rule="nonzero"/><path fill="#192351" d="M 17.917969 24.746094 C 17.902344 24.746094 17.894531 24.730469 17.894531 24.71875 L 17.894531 24.257812 C 17.894531 24.242188 17.90625 24.230469 17.917969 24.230469 C 17.933594 24.230469 17.945312 24.242188 17.945312 24.257812 L 17.945312 24.71875 C 17.945312 24.730469 17.933594 24.746094 17.917969 24.746094 Z M 17.917969 24.746094 " fill-opacity="1" fill-rule="nonzero"/><path fill="#192351" d="M 17.378906 24.746094 C 17.363281 24.746094 17.351562 24.730469 17.351562 24.71875 L 17.351562 24.257812 C 17.351562 24.242188 17.363281 24.230469 17.378906 24.230469 C 17.390625 24.230469 17.402344 24.242188 17.402344 24.257812 L 17.402344 24.71875 C 17.402344 24.730469 17.390625 24.746094 17.378906 24.746094 Z M 17.378906 24.746094 " fill-opacity="1" fill-rule="nonzero"/><path fill="#4b6fdd" d="M 16.3125 25.160156 L 16.3125 25.945312 C 16.3125 26.015625 16.371094 26.074219 16.441406 26.074219 L 20.3125 26.074219 C 20.382812 26.074219 20.4375 26.015625 20.4375 25.945312 L 20.4375 25.160156 C 20.4375 25.089844 20.382812 25.03125 20.3125 25.03125 L 16.441406 25.03125 C 16.371094 25.03125 16.3125 25.089844 16.3125 25.160156 Z M 16.3125 25.160156 " fill-opacity="1" fill-rule="nonzero"/><path fill="#192351" d="M 16.3125 25.875 L 16.3125 25.945312 C 16.3125 26.015625 16.371094 26.074219 16.441406 26.074219 L 20.3125 26.074219 C 20.382812 26.074219 20.4375 26.015625 20.4375 25.945312 L 20.4375 25.875 Z M 16.3125 25.875 " fill-opacity="1" fill-rule="nonzero"/><path fill="#192351" d="M 20 25.785156 C 19.984375 25.785156 19.972656 25.773438 19.972656 25.757812 L 19.972656 25.300781 C 19.972656 25.285156 19.984375 25.273438 20 25.273438 C 20.011719 25.273438 20.023438 25.285156 20.023438 25.300781 L 20.023438 25.757812 C 20.023438 25.773438 20.011719 25.785156 20 25.785156 Z M 20 25.785156 " fill-opacity="1" fill-rule="nonzero"/><path fill="#192351" d="M 19.457031 25.785156 C 19.441406 25.785156 19.429688 25.773438 19.429688 25.757812 L 19.429688 25.300781 C 19.429688 25.285156 19.441406 25.273438 19.457031 25.273438 C 19.472656 25.273438 19.484375 25.285156 19.484375 25.300781 L 19.484375 25.757812 C 19.484375 25.773438 19.472656 25.785156 19.457031 25.785156 Z M 19.457031 25.785156 " fill-opacity="1" fill-rule="nonzero"/><path fill="#192351" d="M 18.917969 25.785156 C 18.902344 25.785156 18.890625 25.773438 18.890625 25.757812 L 18.890625 25.300781 C 18.890625 25.285156 18.902344 25.273438 18.917969 25.273438 C 18.929688 25.273438 18.941406 25.285156 18.941406 25.300781 L 18.941406 25.757812 C 18.941406 25.773438 18.929688 25.785156 18.917969 25.785156 Z M 18.917969 25.785156 " fill-opacity="1" fill-rule="nonzero"/><path fill="#192351" d="M 18.375 25.785156 C 18.359375 25.785156 18.347656 25.773438 18.347656 25.757812 L 18.347656 25.300781 C 18.347656 25.285156 18.363281 25.273438 18.375 25.273438 C 18.390625 25.273438 18.402344 25.285156 18.402344 25.300781 L 18.402344 25.757812 C 18.402344 25.773438 18.390625 25.785156 18.375 25.785156 Z M 18.375 25.785156 " fill-opacity="1" fill-rule="nonzero"/><path fill="#192351" d="M 17.835938 25.785156 C 17.820312 25.785156 17.808594 25.773438 17.808594 25.757812 L 17.808594 25.300781 C 17.808594 25.285156 17.820312 25.273438 17.835938 25.273438 C 17.847656 25.273438 17.859375 25.285156 17.859375 25.300781 L 17.859375 25.757812 C 17.863281 25.773438 17.847656 25.785156 17.835938 25.785156 Z M 17.835938 25.785156 " fill-opacity="1" fill-rule="nonzero"/><path fill="#192351" d="M 17.292969 25.785156 C 17.277344 25.785156 17.265625 25.773438 17.265625 25.757812 L 17.265625 25.300781 C 17.265625 25.285156 17.277344 25.273438 17.292969 25.273438 C 17.308594 25.273438 17.320312 25.285156 17.320312 25.300781 L 17.320312 25.757812 C 17.320312 25.773438 17.308594 25.785156 17.292969 25.785156 Z M 17.292969 25.785156 " fill-opacity="1" fill-rule="nonzero"/><path fill="#192351" d="M 16.753906 25.785156 C 16.738281 25.785156 16.726562 25.773438 16.726562 25.757812 L 16.726562 25.300781 C 16.726562 25.285156 16.738281 25.273438 16.753906 25.273438 C 16.765625 25.273438 16.777344 25.285156 16.777344 25.300781 L 16.777344 25.757812 C 16.777344 25.773438 16.765625 25.785156 16.753906 25.785156 Z M 16.753906 25.785156 " fill-opacity="1" fill-rule="nonzero"/><g clip-path="url(#405881f502)"><path fill="#4b6fdd" d="M 16.441406 26.203125 L 16.441406 26.984375 C 16.441406 27.054688 16.5 27.113281 16.570312 27.113281 L 20.441406 27.113281 C 20.511719 27.113281 20.570312 27.054688 20.570312 26.984375 L 20.570312 26.203125 C 20.570312 26.128906 20.511719 26.074219 20.441406 26.074219 L 16.570312 26.074219 C 16.5 26.074219 16.441406 26.128906 16.441406 26.203125 Z M 16.441406 26.203125 " fill-opacity="1" fill-rule="nonzero"/><path fill="#192351" d="M 16.441406 26.914062 L 16.441406 26.984375 C 16.441406 27.054688 16.5 27.113281 16.570312 27.113281 L 20.441406 27.113281 C 20.511719 27.113281 20.570312 27.054688 20.570312 26.984375 L 20.570312 26.914062 Z M 16.441406 26.914062 " fill-opacity="1" fill-rule="nonzero"/></g><path fill="#192351" d="M 20.128906 26.824219 C 20.113281 26.824219 20.101562 26.8125 20.101562 26.800781 L 20.101562 26.339844 C 20.101562 26.324219 20.117188 26.3125 20.128906 26.3125 C 20.144531 26.3125 20.15625 26.324219 20.15625 26.339844 L 20.15625 26.800781 C 20.15625 26.8125 20.144531 26.824219 20.128906 26.824219 Z M 20.128906 26.824219 " fill-opacity="1" fill-rule="nonzero"/><path fill="#192351" d="M 19.589844 26.824219 C 19.574219 26.824219 19.5625 26.8125 19.5625 26.800781 L 19.5625 26.339844 C 19.5625 26.324219 19.574219 26.3125 19.589844 26.3125 C 19.601562 26.3125 19.613281 26.324219 19.613281 26.339844 L 19.613281 26.800781 C 19.613281 26.8125 19.601562 26.824219 19.589844 26.824219 Z M 19.589844 26.824219 " fill-opacity="1" fill-rule="nonzero"/><path fill="#192351" d="M 19.046875 26.824219 C 19.03125 26.824219 19.019531 26.8125 19.019531 26.800781 L 19.019531 26.339844 C 19.019531 26.324219 19.03125 26.3125 19.046875 26.3125 C 19.0625 26.3125 19.074219 26.324219 19.074219 26.339844 L 19.074219 26.800781 C 19.074219 26.8125 19.0625 26.824219 19.046875 26.824219 Z M 19.046875 26.824219 " fill-opacity="1" fill-rule="nonzero"/><path fill="#192351" d="M 18.507812 26.824219 C 18.492188 26.824219 18.480469 26.8125 18.480469 26.800781 L 18.480469 26.339844 C 18.480469 26.324219 18.492188 26.3125 18.507812 26.3125 C 18.519531 26.3125 18.53125 26.324219 18.53125 26.339844 L 18.53125 26.800781 C 18.53125 26.8125 18.519531 26.824219 18.507812 26.824219 Z M 18.507812 26.824219 " fill-opacity="1" fill-rule="nonzero"/><path fill="#192351" d="M 17.964844 26.824219 C 17.949219 26.824219 17.9375 26.8125 17.9375 26.800781 L 17.9375 26.339844 C 17.9375 26.324219 17.953125 26.3125 17.964844 26.3125 C 17.980469 26.3125 17.992188 26.324219 17.992188 26.339844 L 17.992188 26.800781 C 17.992188 26.8125 17.980469 26.824219 17.964844 26.824219 Z M 17.964844 26.824219 " fill-opacity="1" fill-rule="nonzero"/><path fill="#192351" d="M 17.425781 26.824219 C 17.410156 26.824219 17.398438 26.8125 17.398438 26.800781 L 17.398438 26.339844 C 17.398438 26.324219 17.410156 26.3125 17.425781 26.3125 C 17.4375 26.3125 17.449219 26.324219 17.449219 26.339844 L 17.449219 26.800781 C 17.453125 26.8125 17.4375 26.824219 17.425781 26.824219 Z M 17.425781 26.824219 " fill-opacity="1" fill-rule="nonzero"/><path fill="#192351" d="M 16.882812 26.824219 C 16.867188 26.824219 16.855469 26.8125 16.855469 26.800781 L 16.855469 26.339844 C 16.855469 26.324219 16.867188 26.3125 16.882812 26.3125 C 16.898438 26.3125 16.910156 26.324219 16.910156 26.339844 L 16.910156 26.800781 C 16.910156 26.8125 16.898438 26.824219 16.882812 26.824219 Z M 16.882812 26.824219 " fill-opacity="1" fill-rule="nonzero"/><path fill="#4b6fdd" d="M 26.925781 10.835938 L 27.09375 11.007812 L 26.320312 11.796875 L 26.148438 11.621094 Z M 26.925781 10.835938 " fill-opacity="1" fill-rule="nonzero"/><path fill="#4b6fdd" d="M 27.097656 11.621094 L 26.925781 11.796875 L 26.148438 11.007812 L 26.320312 10.835938 Z M 27.097656 11.621094 " fill-opacity="1" fill-rule="nonzero"/><path fill="#dae4fe" d="M 27.613281 7.421875 L 27.730469 7.539062 L 27.199219 8.078125 L 27.082031 7.960938 Z M 27.613281 7.421875 " fill-opacity="1" fill-rule="nonzero"/><path fill="#dae4fe" d="M 27.730469 7.960938 L 27.613281 8.078125 L 27.082031 7.539062 L 27.199219 7.421875 Z M 27.730469 7.960938 " fill-opacity="1" fill-rule="nonzero"/></svg>