<svg xmlns="http://www.w3.org/2000/svg" xmlns:xlink="http://www.w3.org/1999/xlink" width="40" zoomAndPan="magnify" viewBox="0 0 30 30.000001" height="40" preserveAspectRatio="xMidYMid meet" version="1.0"><defs><clipPath id="fb741467c2"><path d="M 1 2 L 29 2 L 29 27.597656 L 1 27.597656 Z M 1 2 " clip-rule="nonzero"/></clipPath><clipPath id="922860ea98"><path d="M 25 23 L 29 23 L 29 27.597656 L 25 27.597656 Z M 25 23 " clip-rule="nonzero"/></clipPath><clipPath id="4bea7273c7"><path d="M 23 18 L 29 18 L 29 27.597656 L 23 27.597656 Z M 23 18 " clip-rule="nonzero"/></clipPath><clipPath id="9f160ad511"><path d="M 22 20 L 26 20 L 26 27.597656 L 22 27.597656 Z M 22 20 " clip-rule="nonzero"/></clipPath><clipPath id="2e95c1b0f9"><path d="M 24 19 L 28 19 L 28 27.597656 L 24 27.597656 Z M 24 19 " clip-rule="nonzero"/></clipPath><clipPath id="8217cf9c0c"><path d="M 23 21 L 25 21 L 25 27.597656 L 23 27.597656 Z M 23 21 " clip-rule="nonzero"/></clipPath><clipPath id="975ae17ba2"><path d="M 11 5 L 25 5 L 25 27.597656 L 11 27.597656 Z M 11 5 " clip-rule="nonzero"/></clipPath><clipPath id="a25e30d78e"><path d="M 12 26 L 24 26 L 24 27.597656 L 12 27.597656 Z M 12 26 " clip-rule="nonzero"/></clipPath><clipPath id="a89034a9ca"><path d="M 2 16 L 17 16 L 17 27.597656 L 2 27.597656 Z M 2 16 " clip-rule="nonzero"/></clipPath><clipPath id="27d2d10d69"><path d="M 2 25 L 6 25 L 6 27.597656 L 2 27.597656 Z M 2 25 " clip-rule="nonzero"/></clipPath><clipPath id="89e77a4ec8"><path d="M 5 23 L 11 23 L 11 27.597656 L 5 27.597656 Z M 5 23 " clip-rule="nonzero"/></clipPath></defs><g clip-path="url(#fb741467c2)"><path fill="#e7e8ff" d="M 9.09375 27.597656 L 21.90625 27.597656 C 23.382812 27.597656 24.808594 27.054688 25.914062 26.074219 L 27.238281 24.902344 C 29.484375 22.914062 29.296875 19.34375 26.855469 17.601562 C 24.886719 16.203125 24.3125 13.523438 25.535156 11.4375 L 25.671875 11.203125 C 26.777344 9.316406 26.519531 6.929688 25.039062 5.324219 L 23.253906 3.386719 C 21.488281 1.46875 18.398438 1.71875 16.964844 3.894531 C 15.871094 5.546875 13.738281 6.15625 11.941406 5.324219 L 11.160156 4.964844 C 8.917969 3.933594 6.257812 4.6875 4.890625 6.746094 L 4.015625 8.066406 C 3.148438 9.371094 3.042969 11.042969 3.738281 12.449219 C 4.535156 14.0625 4.265625 16.003906 3.058594 17.34375 L 2.707031 17.734375 C 0.511719 20.167969 1.109375 24.011719 3.941406 25.660156 L 5.6875 26.675781 C 6.722656 27.277344 7.898438 27.597656 9.09375 27.597656 Z M 9.09375 27.597656 " fill-opacity="1" fill-rule="nonzero"/></g><g clip-path="url(#922860ea98)"><path fill="#032068" d="M 28.046875 23.84375 C 28.070312 25.492188 26.953125 26.878906 26.382812 27.367188 L 25.511719 27.367188 C 26.160156 25.171875 27.230469 24.078125 27.828125 23.714844 C 27.929688 23.65625 28.046875 23.726562 28.046875 23.84375 Z M 28.046875 23.84375 " fill-opacity="1" fill-rule="nonzero"/></g><g clip-path="url(#4bea7273c7)"><path fill="#ffffff" d="M 28.140625 18.445312 C 29.03125 21.808594 26.785156 25.796875 25.816406 27.28125 L 23.859375 27.28125 C 24.699219 20.929688 26.109375 19.386719 27.894531 18.34375 C 27.988281 18.285156 28.113281 18.335938 28.140625 18.445312 Z M 28.140625 18.445312 " fill-opacity="1" fill-rule="nonzero"/><path fill="#032068" d="M 27.9375 18.417969 C 27.984375 18.390625 28.042969 18.414062 28.054688 18.464844 C 28.496094 20.125 28.164062 21.941406 27.59375 23.539062 C 27.035156 25.105469 26.253906 26.445312 25.769531 27.191406 L 23.957031 27.191406 C 24.378906 24.078125 24.933594 22.144531 25.601562 20.859375 C 26.273438 19.570312 27.058594 18.933594 27.9375 18.417969 Z M 28.222656 18.421875 C 28.179688 18.257812 27.996094 18.183594 27.851562 18.265625 C 26.949219 18.792969 26.136719 19.453125 25.445312 20.78125 C 24.757812 22.105469 24.195312 24.089844 23.773438 27.269531 L 23.761719 27.367188 L 25.863281 27.367188 L 25.890625 27.328125 C 26.375 26.582031 27.183594 25.207031 27.757812 23.597656 C 28.332031 21.988281 28.675781 20.128906 28.222656 18.421875 Z M 28.222656 18.421875 " fill-opacity="1" fill-rule="evenodd"/></g><g clip-path="url(#9f160ad511)"><path fill="#032068" d="M 24.984375 20.515625 C 25.753906 23.335938 24.871094 26.265625 24.292969 27.367188 L 22.859375 27.367188 C 22.535156 23.929688 23.847656 21.429688 24.710938 20.445312 C 24.796875 20.351562 24.949219 20.390625 24.984375 20.515625 Z M 24.984375 20.515625 " fill-opacity="1" fill-rule="nonzero"/></g><g clip-path="url(#2e95c1b0f9)"><path fill="#032068" d="M 26.921875 20.839844 L 27.390625 19.515625 L 27.554688 19.574219 L 26.480469 22.601562 L 27.183594 22.390625 L 27.234375 22.558594 L 26.40625 22.808594 L 25.433594 25.558594 L 26.308594 25.230469 L 26.371094 25.394531 L 25.355469 25.773438 L 24.8125 27.308594 L 24.648438 27.25 L 25.753906 24.132812 L 25.34375 22.984375 L 25.507812 22.925781 L 25.84375 23.875 L 26.820312 21.117188 L 26.519531 20.097656 L 26.683594 20.046875 Z M 26.921875 20.839844 " fill-opacity="1" fill-rule="evenodd"/></g><g clip-path="url(#8217cf9c0c)"><path fill="#ffffff" d="M 24.246094 22.765625 L 24.46875 21.539062 L 24.640625 21.570312 L 24.191406 24.0625 L 24.777344 23.75 L 24.855469 23.90625 L 24.152344 24.277344 L 23.765625 26.414062 L 24.25 26.03125 L 24.355469 26.167969 L 23.71875 26.671875 L 23.597656 27.339844 L 23.425781 27.308594 L 23.734375 25.597656 L 23.222656 24.929688 L 23.363281 24.824219 L 23.777344 25.367188 L 24.210938 22.980469 L 23.796875 22.535156 L 23.921875 22.414062 Z M 24.246094 22.765625 " fill-opacity="1" fill-rule="evenodd"/></g><path fill="#ffffff" d="M 8.882812 6.714844 L 9.21875 6.796875 C 9.277344 6.8125 9.28125 6.894531 9.226562 6.917969 L 8.914062 7.042969 C 8.894531 7.050781 8.882812 7.066406 8.875 7.089844 L 8.789062 7.445312 C 8.777344 7.503906 8.695312 7.511719 8.671875 7.457031 L 8.511719 7.121094 C 8.503906 7.105469 8.488281 7.09375 8.46875 7.089844 L 8.078125 6.976562 C 8.019531 6.960938 8.015625 6.878906 8.070312 6.859375 L 8.429688 6.722656 C 8.445312 6.714844 8.460938 6.699219 8.464844 6.683594 L 8.601562 6.289062 C 8.621094 6.230469 8.703125 6.230469 8.722656 6.289062 L 8.835938 6.671875 C 8.84375 6.695312 8.859375 6.710938 8.882812 6.714844 Z M 8.882812 6.714844 " fill-opacity="1" fill-rule="nonzero"/><path fill="#ffffff" d="M 6.207031 10.027344 L 6.292969 10.097656 C 6.339844 10.132812 6.3125 10.210938 6.25 10.207031 L 6.140625 10.203125 C 6.121094 10.199219 6.101562 10.207031 6.089844 10.226562 L 6.003906 10.328125 C 5.964844 10.375 5.890625 10.347656 5.890625 10.289062 L 5.890625 10.152344 C 5.890625 10.132812 5.882812 10.117188 5.871094 10.105469 L 5.753906 10 C 5.707031 9.960938 5.738281 9.886719 5.800781 9.890625 L 5.9375 9.902344 C 5.957031 9.902344 5.976562 9.894531 5.988281 9.882812 L 6.097656 9.769531 C 6.140625 9.726562 6.214844 9.761719 6.207031 9.824219 L 6.183594 9.96875 C 6.179688 9.988281 6.1875 10.011719 6.207031 10.027344 Z M 6.207031 10.027344 " fill-opacity="1" fill-rule="nonzero"/><path fill="#f4ad5e" d="M 27.097656 15.152344 L 26.847656 15.496094 C 26.832031 15.515625 26.804688 15.527344 26.78125 15.519531 L 26.472656 15.460938 C 26.40625 15.445312 26.363281 15.535156 26.417969 15.582031 L 26.660156 15.804688 C 26.679688 15.820312 26.6875 15.84375 26.683594 15.871094 L 26.621094 16.234375 C 26.609375 16.304688 26.691406 16.347656 26.734375 16.296875 L 26.984375 16.015625 C 27 16 27.019531 15.988281 27.042969 15.992188 L 27.332031 16.035156 C 27.398438 16.042969 27.433594 15.957031 27.382812 15.914062 L 27.167969 15.710938 C 27.152344 15.695312 27.144531 15.671875 27.148438 15.648438 L 27.214844 15.207031 C 27.226562 15.136719 27.140625 15.097656 27.097656 15.152344 Z M 27.097656 15.152344 " fill-opacity="1" fill-rule="nonzero"/><g clip-path="url(#975ae17ba2)"><path fill="#ffffff" d="M 11.941406 6.128906 C 11.941406 5.625 12.347656 5.214844 12.851562 5.214844 L 23.226562 5.214844 C 23.730469 5.214844 24.140625 5.625 24.140625 6.128906 L 24.140625 26.449219 C 24.140625 26.957031 23.730469 27.363281 23.226562 27.363281 L 12.851562 27.363281 C 12.347656 27.363281 11.941406 26.957031 11.941406 26.449219 Z M 11.941406 6.128906 " fill-opacity="1" fill-rule="nonzero"/><path fill="#032068" d="M 11.863281 6.128906 C 11.863281 5.582031 12.308594 5.140625 12.851562 5.140625 L 23.226562 5.140625 C 23.773438 5.140625 24.214844 5.582031 24.214844 6.128906 L 24.214844 26.449219 C 24.214844 26.996094 23.773438 27.441406 23.226562 27.441406 L 12.851562 27.441406 C 12.308594 27.441406 11.863281 26.996094 11.863281 26.449219 Z M 12.851562 5.292969 C 12.390625 5.292969 12.015625 5.664062 12.015625 6.128906 L 12.015625 26.449219 C 12.015625 26.914062 12.390625 27.289062 12.851562 27.289062 L 23.226562 27.289062 C 23.691406 27.289062 24.0625 26.914062 24.0625 26.449219 L 24.0625 6.128906 C 24.0625 5.664062 23.691406 5.292969 23.226562 5.292969 Z M 12.851562 5.292969 " fill-opacity="1" fill-rule="evenodd"/></g><path fill="#e7e8ff" d="M 21.59375 13.359375 C 21.59375 15.335938 19.992188 16.9375 18.019531 16.9375 C 16.046875 16.9375 14.449219 15.335938 14.449219 13.359375 C 14.449219 11.382812 16.046875 9.78125 18.019531 9.78125 C 19.992188 9.78125 21.59375 11.382812 21.59375 13.359375 Z M 21.59375 13.359375 " fill-opacity="1" fill-rule="nonzero"/><path fill="#032068" d="M 15.613281 5.957031 L 15.21875 5.214844 L 20.863281 5.214844 L 20.398438 5.992188 C 20.257812 6.21875 20.011719 6.359375 19.746094 6.359375 L 16.285156 6.359375 C 16.003906 6.359375 15.746094 6.207031 15.613281 5.957031 Z M 15.613281 5.957031 " fill-opacity="1" fill-rule="nonzero"/><path fill="#032068" d="M 23.992188 5.671875 L 12.011719 5.671875 C 12.410156 5.277344 12.789062 5.203125 12.925781 5.214844 L 23.074219 5.214844 C 23.5625 5.214844 23.886719 5.519531 23.992188 5.671875 Z M 23.992188 5.671875 " fill-opacity="1" fill-rule="nonzero"/><g clip-path="url(#a25e30d78e)"><path fill="#032068" d="M 23.980469 26.929688 L 12.09375 26.929688 C 12.503906 27.332031 12.742188 27.410156 12.886719 27.394531 L 23.1875 27.394531 C 23.691406 27.394531 23.875 27.085938 23.980469 26.929688 Z M 23.980469 26.929688 " fill-opacity="1" fill-rule="nonzero"/></g><path fill="#f4ad5e" d="M 13.6875 8.105469 C 13.6875 8.023438 13.757812 7.953125 13.839844 7.953125 L 17.886719 7.953125 C 17.972656 7.953125 18.039062 8.023438 18.039062 8.105469 L 18.039062 8.269531 C 18.039062 8.351562 17.972656 8.421875 17.886719 8.421875 L 13.839844 8.421875 C 13.757812 8.421875 13.6875 8.351562 13.6875 8.269531 Z M 13.6875 8.105469 " fill-opacity="1" fill-rule="nonzero"/><path fill="#032068" d="M 13.6875 18.382812 C 13.6875 18.300781 13.757812 18.230469 13.839844 18.230469 L 17.886719 18.230469 C 17.972656 18.230469 18.039062 18.300781 18.039062 18.382812 L 18.039062 18.546875 C 18.039062 18.628906 17.972656 18.699219 17.886719 18.699219 L 13.839844 18.699219 C 13.757812 18.699219 13.6875 18.628906 13.6875 18.546875 Z M 13.6875 18.382812 " fill-opacity="1" fill-rule="nonzero"/><path fill="#032068" d="M 13.6875 22.417969 C 13.6875 22.335938 13.757812 22.265625 13.839844 22.265625 L 16.273438 22.265625 C 16.355469 22.265625 16.425781 22.335938 16.425781 22.417969 L 16.425781 22.570312 C 16.425781 22.65625 16.355469 22.722656 16.273438 22.722656 L 13.839844 22.722656 C 13.757812 22.722656 13.6875 22.65625 13.6875 22.570312 Z M 13.6875 22.417969 " fill-opacity="1" fill-rule="nonzero"/><path fill="#e7e8ff" d="M 13.6875 19.527344 C 13.6875 19.441406 13.757812 19.375 13.839844 19.375 L 21.972656 19.375 C 22.054688 19.375 22.125 19.441406 22.125 19.527344 L 22.125 21.046875 C 22.125 21.132812 22.054688 21.199219 21.972656 21.199219 L 13.839844 21.199219 C 13.757812 21.199219 13.6875 21.132812 13.6875 21.046875 Z M 13.6875 19.527344 " fill-opacity="1" fill-rule="nonzero"/><path fill="#e7e8ff" d="M 13.6875 23.484375 C 13.6875 23.402344 13.757812 23.332031 13.839844 23.332031 L 21.972656 23.332031 C 22.054688 23.332031 22.125 23.402344 22.125 23.484375 L 22.125 25.007812 C 22.125 25.089844 22.054688 25.160156 21.972656 25.160156 L 13.839844 25.160156 C 13.757812 25.160156 13.6875 25.089844 13.6875 25.007812 Z M 13.6875 23.484375 " fill-opacity="1" fill-rule="nonzero"/><path fill="#032068" d="M 23.132812 6.304688 L 23.285156 6.304688 L 23.285156 6.925781 L 23.132812 6.925781 Z M 23.132812 6.304688 " fill-opacity="1" fill-rule="evenodd"/><path fill="#032068" d="M 22.742188 6.382812 L 22.894531 6.382812 L 22.894531 6.925781 L 22.742188 6.925781 Z M 22.742188 6.382812 " fill-opacity="1" fill-rule="evenodd"/><path fill="#032068" d="M 22.355469 6.535156 L 22.507812 6.535156 L 22.507812 6.925781 L 22.355469 6.925781 Z M 22.355469 6.535156 " fill-opacity="1" fill-rule="evenodd"/><path fill="#032068" d="M 21.964844 6.691406 L 22.117188 6.691406 L 22.117188 6.925781 L 21.964844 6.925781 Z M 21.964844 6.691406 " fill-opacity="1" fill-rule="evenodd"/><path fill="#ffffff" d="M 18.054688 13.402344 C 17.050781 13.402344 16.222656 14.171875 16.109375 15.164062 C 16.09375 15.289062 16.199219 15.394531 16.324219 15.394531 L 19.785156 15.394531 C 19.910156 15.394531 20.015625 15.289062 20 15.164062 C 19.886719 14.171875 19.058594 13.402344 18.054688 13.402344 Z M 18.054688 13.402344 " fill-opacity="1" fill-rule="nonzero"/><path fill="#ffffff" d="M 19.019531 12.230469 C 19.019531 12.75 18.601562 13.167969 18.082031 13.167969 C 17.566406 13.167969 17.148438 12.75 17.148438 12.230469 C 17.148438 11.714844 17.566406 11.296875 18.082031 11.296875 C 18.601562 11.296875 19.019531 11.714844 19.019531 12.230469 Z M 19.019531 12.230469 " fill-opacity="1" fill-rule="nonzero"/><path fill="#efcb96" d="M 10.125 15.265625 L 10.433594 16.222656 C 10.554688 16.671875 10.125 17.144531 9.09375 17.144531 C 8.269531 17.144531 8.105469 16.675781 8.148438 16.292969 L 8.394531 14.980469 C 8.1875 14.773438 8.023438 14.652344 8.023438 13.671875 C 8.023438 12.445312 8.683594 11.996094 9.464844 11.996094 C 10.246094 11.996094 10.90625 12.648438 10.90625 13.835938 C 10.90625 14.855469 10.355469 15.183594 10.125 15.265625 Z M 10.125 15.265625 " fill-opacity="1" fill-rule="nonzero"/><path fill="#032068" d="M 12.078125 14.371094 C 12.6875 15.007812 12.605469 16.585938 12.511719 17.066406 C 11.519531 16.328125 10.851562 16.082031 10.503906 16.054688 C 10.445312 16.050781 10.4375 16.183594 10.398438 16.1875 L 10.101562 15.210938 C 10.546875 15.089844 10.828125 14.6875 10.867188 13.769531 C 10.898438 13.035156 10.53125 12.53125 10.34375 12.371094 C 9.699219 12.328125 9.375 13.128906 9.175781 13.449219 C 9.015625 13.707031 8.894531 13.664062 8.851562 13.609375 C 8.652344 13.128906 8.289062 13.089844 8.207031 13.609375 C 8.144531 14.027344 8.449219 14.234375 8.609375 14.289062 L 8.148438 16.328125 C 8.09375 16.332031 8.042969 16.152344 8.042969 16.070312 C 7.179688 16.167969 6.234375 16.625 5.953125 16.8125 C 5.832031 15.53125 7 14.570312 7.320312 13.769531 C 7.644531 12.96875 7.199219 12.570312 7.523438 12.050781 C 7.761719 11.664062 8.207031 11.609375 8.488281 11.53125 C 8.773438 11.449219 8.933594 11.128906 9.253906 10.96875 C 9.820312 10.769531 10.355469 11.261719 10.503906 11.609375 C 10.597656 11.597656 10.867188 11.632812 11.191406 11.890625 C 12.117188 12.53125 11.3125 13.570312 12.078125 14.371094 Z M 12.078125 14.371094 " fill-opacity="1" fill-rule="nonzero"/><path fill="#032068" d="M 9.304688 15.214844 C 9.785156 15.328125 10.066406 15.285156 10.144531 15.25 L 10.265625 15.636719 C 9.753906 15.695312 9.410156 15.378906 9.304688 15.214844 Z M 9.304688 15.214844 " fill-opacity="1" fill-rule="nonzero"/><g clip-path="url(#a89034a9ca)"><path fill="#f4ad5e" d="M 9.195312 16.777344 C 10.003906 16.777344 10.382812 16.277344 10.472656 16.027344 C 12.015625 16.027344 13.292969 17.097656 13.875 17.84375 C 14.460938 18.59375 16.640625 22.546875 16.109375 24.152344 C 15.683594 25.433594 14.65625 25.632812 14.089844 25.542969 L 14.183594 27.242188 C 14.191406 27.363281 14.09375 27.464844 13.972656 27.464844 L 6.164062 27.464844 C 5.351562 27.519531 3.570312 27.542969 2.972656 27.199219 C 2.230469 26.769531 1.539062 24.578125 2.972656 20.25 C 4.121094 16.785156 6.820312 15.992188 8.027344 16.027344 C 8.078125 16.277344 8.386719 16.777344 9.195312 16.777344 Z M 9.195312 16.777344 " fill-opacity="1" fill-rule="nonzero"/></g><g clip-path="url(#27d2d10d69)"><path fill="#032068" d="M 5.324219 27.46875 C 4.042969 25.898438 2.6875 25.339844 2.167969 25.253906 C 2.167969 25.757812 2.417969 26.714844 2.871094 27.167969 C 3.230469 27.53125 4.65625 27.519531 5.324219 27.46875 Z M 5.324219 27.46875 " fill-opacity="1" fill-rule="nonzero"/></g><path fill="#032068" d="M 15.242188 25.355469 C 16.082031 25.03125 16.226562 23.878906 16.191406 23.339844 C 15.429688 23.703125 14.40625 24.9375 13.988281 25.507812 C 14.054688 25.589844 14.398438 25.675781 15.242188 25.355469 Z M 15.242188 25.355469 " fill-opacity="1" fill-rule="nonzero"/><path fill="#032068" d="M 9.089844 21.691406 C 8.71875 21.855469 5.953125 23.15625 4.675781 23.777344 C 4.835938 23.511719 5.472656 23.082031 5.632812 22.921875 C 5.792969 22.761719 6.378906 20.890625 6.378906 21.160156 C 6.378906 21.425781 6.058594 22.65625 6.21875 22.65625 C 6.378906 22.65625 8.613281 21.691406 9.089844 21.691406 Z M 9.089844 21.691406 " fill-opacity="1" fill-rule="nonzero"/><g clip-path="url(#89e77a4ec8)"><path fill="#032068" d="M 10.207031 23.242188 C 7.953125 26.28125 6.113281 27.359375 5.472656 27.519531 L 6.589844 27.519531 C 8.503906 26.023438 9.800781 24.046875 10.207031 23.242188 Z M 10.207031 23.242188 " fill-opacity="1" fill-rule="nonzero"/></g><path fill="#032068" d="M 12.972656 22.707031 C 13.058594 23.734375 13.789062 25.023438 14.144531 25.542969 L 14.144531 26.023438 C 13.335938 25.125 13.027344 23.441406 12.972656 22.707031 Z M 12.972656 22.707031 " fill-opacity="1" fill-rule="nonzero"/><path fill="#032068" d="M 13.984375 21.265625 C 14.28125 21.4375 14.816406 21.835938 15.046875 22.015625 L 14.195312 21 C 14.152344 21.167969 14.035156 21.246094 13.984375 21.265625 Z M 13.984375 21.265625 " fill-opacity="1" fill-rule="nonzero"/><path fill="#ffffff" d="M 10.839844 19.292969 L 10.429688 23.308594 C 10.425781 23.355469 10.464844 23.394531 10.511719 23.386719 L 12.445312 23.039062 C 12.472656 23.035156 12.496094 23.007812 12.5 22.980469 L 13.066406 19.160156 C 13.074219 19.117188 13.035156 19.078125 12.992188 19.082031 L 10.90625 19.230469 C 10.871094 19.234375 10.84375 19.257812 10.839844 19.292969 Z M 10.839844 19.292969 " fill-opacity="1" fill-rule="nonzero"/><path fill="#032068" d="M 12.988281 19.011719 C 13.078125 19.003906 13.148438 19.082031 13.136719 19.171875 L 12.570312 22.988281 C 12.5625 23.050781 12.515625 23.097656 12.457031 23.109375 L 10.523438 23.457031 C 10.433594 23.472656 10.351562 23.398438 10.359375 23.304688 L 10.769531 19.285156 C 10.777344 19.21875 10.832031 19.164062 10.898438 19.160156 Z M 12.996094 19.152344 L 10.910156 19.300781 L 10.5 23.316406 L 12.433594 22.96875 Z M 12.996094 19.152344 " fill-opacity="1" fill-rule="evenodd"/><path fill="#efcb96" d="M 13.609375 21.265625 L 12.972656 22.226562 C 12.121094 22.28125 11.960938 21.800781 12.121094 21.050781 C 12.25 20.453125 12.726562 20.445312 12.917969 20.515625 L 13.027344 20.089844 C 13.609375 20.570312 13.609375 21.035156 13.609375 21.265625 Z M 13.609375 21.265625 " fill-opacity="1" fill-rule="nonzero"/><path fill="#efcb96" d="M 9.886719 21.160156 C 9.761719 21.5 9.515625 21.730469 9.410156 21.800781 L 10.101562 22.871094 C 10.3125 22.65625 10.578125 22.65625 11.164062 22.386719 C 11.75 22.121094 11.910156 21.160156 11.75 20.625 C 11.621094 20.195312 10.882812 20.515625 10.578125 20.730469 L 10.632812 20.144531 C 10.261719 20.304688 10.046875 20.730469 9.886719 21.160156 Z M 9.886719 21.160156 " fill-opacity="1" fill-rule="nonzero"/><path fill="#ffffff" d="M 28.433594 11.152344 C 28.433594 12.582031 27.273438 13.738281 25.847656 13.738281 C 24.421875 13.738281 23.265625 12.582031 23.265625 11.152344 C 23.265625 9.722656 24.421875 8.5625 25.847656 8.5625 C 27.273438 8.5625 28.433594 9.722656 28.433594 11.152344 Z M 28.433594 11.152344 " fill-opacity="1" fill-rule="nonzero"/><path fill="#032068" d="M 25.847656 8.628906 C 24.457031 8.628906 23.328125 9.757812 23.328125 11.152344 C 23.328125 12.546875 24.457031 13.675781 25.847656 13.675781 C 27.242188 13.675781 28.367188 12.546875 28.367188 11.152344 C 28.367188 9.757812 27.242188 8.628906 25.847656 8.628906 Z M 23.199219 11.152344 C 23.199219 9.6875 24.386719 8.5 25.847656 8.5 C 27.308594 8.5 28.496094 9.6875 28.496094 11.152344 C 28.496094 12.617188 27.308594 13.804688 25.847656 13.804688 C 24.386719 13.804688 23.199219 12.617188 23.199219 11.152344 Z M 23.199219 11.152344 " fill-opacity="1" fill-rule="evenodd"/><path fill="#032068" d="M 25.878906 9.550781 C 25.386719 9.550781 24.988281 9.957031 24.988281 10.457031 L 24.988281 11.078125 C 24.988281 11.152344 25.046875 11.214844 25.121094 11.214844 C 25.195312 11.214844 25.253906 11.152344 25.253906 11.078125 L 25.253906 10.441406 C 25.253906 10.089844 25.535156 9.804688 25.878906 9.804688 C 26.222656 9.804688 26.503906 10.089844 26.503906 10.441406 L 26.503906 11.046875 C 26.503906 11.121094 26.5625 11.179688 26.636719 11.179688 C 26.710938 11.179688 26.769531 11.121094 26.769531 11.046875 L 26.769531 10.457031 C 26.769531 9.957031 26.371094 9.550781 25.878906 9.550781 Z M 25.878906 9.550781 " fill-opacity="1" fill-rule="evenodd"/><path fill="#f4ad5e" d="M 24.742188 11.097656 C 24.742188 10.992188 24.824219 10.90625 24.929688 10.90625 L 26.828125 10.90625 C 26.933594 10.90625 27.015625 10.992188 27.015625 11.097656 L 27.015625 12.5 C 27.015625 12.605469 26.933594 12.691406 26.828125 12.691406 L 24.929688 12.691406 C 24.824219 12.691406 24.742188 12.605469 24.742188 12.5 Z M 24.742188 11.097656 " fill-opacity="1" fill-rule="nonzero"/><path fill="#ffffff" d="M 26.023438 11.871094 C 26.078125 11.832031 26.109375 11.765625 26.109375 11.691406 C 26.109375 11.5625 26.007812 11.460938 25.878906 11.460938 C 25.75 11.460938 25.648438 11.5625 25.648438 11.691406 C 25.648438 11.773438 25.6875 11.84375 25.75 11.882812 L 25.695312 12.101562 C 25.6875 12.132812 25.714844 12.164062 25.746094 12.164062 L 26.027344 12.164062 C 26.0625 12.164062 26.085938 12.132812 26.078125 12.101562 Z M 26.023438 11.871094 " fill-opacity="1" fill-rule="evenodd"/></svg>