<svg xmlns="http://www.w3.org/2000/svg" xmlns:xlink="http://www.w3.org/1999/xlink" width="40" zoomAndPan="magnify" viewBox="0 0 30 30.000001" height="40" preserveAspectRatio="xMidYMid meet" version="1.0"><path fill="#caddff" d="M 8.527344 3.527344 C 8.347656 3.632812 8.195312 3.773438 8.027344 3.890625 C 6.613281 4.890625 1.25 8.507812 1.886719 16.546875 C 2.796875 27.949219 7.464844 27.765625 14.433594 27.765625 C 21.402344 27.765625 26.585938 28.753906 28.039062 22.882812 C 29.515625 16.914062 26.84375 16.613281 26.378906 9.804688 C 25.914062 2.992188 22.125 0.457031 16.554688 1.113281 C 13.066406 1.523438 11.003906 2.054688 8.527344 3.527344 " fill-opacity="1" fill-rule="nonzero"/><path fill="#000000" d="M 16.886719 9.886719 C 16.875 9.886719 16.859375 9.882812 16.851562 9.871094 L 16.691406 9.710938 C 16.675781 9.691406 16.675781 9.660156 16.695312 9.644531 C 16.710938 9.625 16.742188 9.625 16.761719 9.644531 L 16.917969 9.804688 C 16.9375 9.824219 16.9375 9.851562 16.917969 9.871094 C 16.910156 9.882812 16.898438 9.886719 16.886719 9.886719 " fill-opacity="1" fill-rule="nonzero"/><path fill="#000000" d="M 17.4375 10.445312 C 17.425781 10.445312 17.414062 10.441406 17.40625 10.433594 L 17.246094 10.273438 C 17.226562 10.253906 17.226562 10.222656 17.246094 10.203125 C 17.265625 10.183594 17.296875 10.183594 17.316406 10.203125 L 17.472656 10.363281 C 17.492188 10.382812 17.492188 10.414062 17.472656 10.433594 C 17.464844 10.441406 17.449219 10.445312 17.4375 10.445312 " fill-opacity="1" fill-rule="nonzero"/><path fill="#000000" d="M 16.726562 10.445312 C 16.714844 10.445312 16.703125 10.441406 16.695312 10.433594 C 16.675781 10.414062 16.675781 10.382812 16.691406 10.363281 L 16.851562 10.203125 C 16.871094 10.183594 16.902344 10.183594 16.917969 10.203125 C 16.9375 10.222656 16.9375 10.253906 16.917969 10.273438 L 16.761719 10.433594 C 16.753906 10.441406 16.738281 10.445312 16.726562 10.445312 " fill-opacity="1" fill-rule="nonzero"/><path fill="#000000" d="M 17.28125 9.886719 C 17.269531 9.886719 17.257812 9.882812 17.246094 9.871094 C 17.226562 9.851562 17.226562 9.824219 17.246094 9.804688 L 17.40625 9.644531 C 17.421875 9.625 17.453125 9.625 17.472656 9.644531 C 17.492188 9.660156 17.492188 9.691406 17.472656 9.710938 L 17.316406 9.871094 C 17.304688 9.882812 17.292969 9.886719 17.28125 9.886719 " fill-opacity="1" fill-rule="nonzero"/><path fill="#000000" d="M 18.449219 11.898438 C 18.316406 11.898438 18.207031 12.003906 18.207031 12.140625 C 18.207031 12.273438 18.316406 12.382812 18.449219 12.382812 C 18.578125 12.382812 18.6875 12.273438 18.6875 12.140625 C 18.6875 12.003906 18.578125 11.898438 18.449219 11.898438 Z M 18.449219 12.480469 C 18.261719 12.480469 18.113281 12.328125 18.113281 12.140625 C 18.113281 11.953125 18.261719 11.800781 18.449219 11.800781 C 18.632812 11.800781 18.78125 11.953125 18.78125 12.140625 C 18.78125 12.328125 18.632812 12.480469 18.449219 12.480469 " fill-opacity="1" fill-rule="nonzero"/><path fill="#000000" d="M 26.714844 6.378906 C 26.707031 6.378906 26.695312 6.375 26.6875 6.367188 C 26.664062 6.351562 26.660156 6.320312 26.679688 6.300781 C 27.171875 5.683594 27.476562 4.9375 27.570312 4.144531 C 27.570312 4.117188 27.59375 4.097656 27.621094 4.101562 C 27.648438 4.105469 27.667969 4.128906 27.664062 4.15625 C 27.570312 4.964844 27.257812 5.726562 26.753906 6.359375 C 26.746094 6.371094 26.730469 6.378906 26.714844 6.378906 " fill-opacity="1" fill-rule="nonzero"/><path fill="#000000" d="M 23.769531 26.902344 C 23.75 26.902344 23.730469 26.890625 23.726562 26.867188 C 23.714844 26.84375 23.730469 26.816406 23.753906 26.808594 C 24.769531 26.46875 25.664062 25.847656 26.347656 25.011719 C 26.363281 24.988281 26.394531 24.988281 26.414062 25.003906 C 26.4375 25.019531 26.441406 25.050781 26.421875 25.074219 C 25.730469 25.925781 24.816406 26.558594 23.785156 26.898438 C 23.78125 26.902344 23.777344 26.902344 23.769531 26.902344 " fill-opacity="1" fill-rule="nonzero"/><path fill="#000000" d="M 25.414062 27.339844 C 25.398438 27.339844 25.378906 27.332031 25.371094 27.3125 C 25.359375 27.289062 25.371094 27.261719 25.394531 27.25 C 26.109375 26.921875 26.714844 26.398438 27.148438 25.730469 C 27.160156 25.707031 27.191406 25.703125 27.214844 25.71875 C 27.238281 25.730469 27.242188 25.761719 27.226562 25.785156 C 26.785156 26.464844 26.164062 27.003906 25.433594 27.335938 C 25.429688 27.339844 25.421875 27.339844 25.414062 27.339844 " fill-opacity="1" fill-rule="nonzero"/><path fill="#000000" d="M 15.398438 3.296875 C 15.394531 3.296875 15.386719 3.296875 15.382812 3.292969 C 15.128906 3.195312 14.863281 3.113281 14.589844 3.054688 C 14.5625 3.046875 14.546875 3.019531 14.554688 2.996094 C 14.558594 2.96875 14.585938 2.953125 14.609375 2.957031 C 14.886719 3.019531 15.160156 3.105469 15.417969 3.203125 C 15.441406 3.210938 15.453125 3.242188 15.445312 3.265625 C 15.4375 3.285156 15.417969 3.296875 15.398438 3.296875 " fill-opacity="1" fill-rule="nonzero"/><path fill="#000000" d="M 11.328125 3.105469 C 11.308594 3.105469 11.289062 3.089844 11.28125 3.066406 C 11.277344 3.039062 11.292969 3.015625 11.320312 3.007812 C 12.285156 2.78125 13.234375 2.734375 14.128906 2.867188 C 14.15625 2.871094 14.175781 2.898438 14.171875 2.921875 C 14.167969 2.949219 14.140625 2.96875 14.117188 2.964844 C 13.230469 2.832031 12.296875 2.878906 11.339844 3.101562 C 11.335938 3.105469 11.332031 3.105469 11.328125 3.105469 " fill-opacity="1" fill-rule="nonzero"/><path fill="#000000" d="M 6.769531 5.851562 C 6.757812 5.851562 6.742188 5.847656 6.734375 5.835938 C 6.71875 5.816406 6.71875 5.785156 6.738281 5.769531 C 7 5.539062 7.273438 5.324219 7.554688 5.125 C 7.574219 5.109375 7.605469 5.113281 7.621094 5.136719 C 7.636719 5.160156 7.628906 5.1875 7.609375 5.203125 C 7.332031 5.402344 7.0625 5.617188 6.800781 5.839844 C 6.792969 5.847656 6.78125 5.851562 6.769531 5.851562 " fill-opacity="1" fill-rule="nonzero"/><path fill="#000000" d="M 3.378906 13.277344 C 3.351562 13.277344 3.332031 13.257812 3.328125 13.234375 C 3.277344 12.566406 3.324219 11.871094 3.46875 11.167969 C 3.476562 11.140625 3.5 11.125 3.527344 11.128906 C 3.554688 11.136719 3.570312 11.160156 3.566406 11.1875 C 3.421875 11.882812 3.375 12.566406 3.425781 13.226562 C 3.425781 13.253906 3.40625 13.277344 3.382812 13.277344 C 3.378906 13.277344 3.378906 13.277344 3.378906 13.277344 " fill-opacity="1" fill-rule="nonzero"/><path fill="#000000" d="M 19.859375 5.375 C 19.855469 5.375 19.855469 5.375 19.855469 5.375 C 19.828125 5.371094 19.808594 5.347656 19.808594 5.320312 C 19.8125 5.296875 19.8125 5.273438 19.8125 5.246094 C 19.867188 4.046875 19.050781 2.992188 17.875 2.738281 L 17.054688 2.5625 C 17.027344 2.554688 17.011719 2.53125 17.015625 2.503906 C 17.023438 2.476562 17.046875 2.460938 17.074219 2.46875 L 17.894531 2.644531 C 18.480469 2.769531 19.003906 3.101562 19.375 3.578125 C 19.746094 4.054688 19.9375 4.648438 19.910156 5.25 C 19.910156 5.277344 19.90625 5.304688 19.90625 5.328125 C 19.902344 5.355469 19.882812 5.375 19.859375 5.375 " fill-opacity="1" fill-rule="nonzero"/><path fill="#000000" d="M 20.734375 4.953125 C 20.730469 4.953125 20.730469 4.953125 20.730469 4.953125 C 20.703125 4.949219 20.683594 4.925781 20.683594 4.898438 L 20.703125 4.660156 C 20.753906 3.933594 20.609375 3.207031 20.289062 2.558594 C 20.277344 2.53125 20.285156 2.503906 20.308594 2.492188 C 20.332031 2.480469 20.363281 2.488281 20.375 2.511719 C 20.703125 3.179688 20.851562 3.921875 20.796875 4.664062 L 20.78125 4.90625 C 20.78125 4.933594 20.757812 4.953125 20.734375 4.953125 " fill-opacity="1" fill-rule="nonzero"/><path fill="#000000" d="M 22.816406 25.65625 C 22.796875 25.65625 22.78125 25.644531 22.773438 25.625 C 22.761719 25.601562 22.773438 25.574219 22.800781 25.5625 C 22.96875 25.5 23.136719 25.429688 23.300781 25.359375 C 23.324219 25.351562 23.351562 25.363281 23.363281 25.386719 C 23.375 25.410156 23.363281 25.4375 23.339844 25.449219 C 23.171875 25.519531 23.003906 25.589844 22.835938 25.652344 C 22.828125 25.65625 22.824219 25.65625 22.816406 25.65625 " fill-opacity="1" fill-rule="nonzero"/><path fill="#000000" d="M 19.984375 26.46875 C 19.960938 26.46875 19.941406 26.453125 19.9375 26.429688 C 19.929688 26.402344 19.945312 26.378906 19.972656 26.371094 C 20.550781 26.242188 21.234375 26.082031 21.933594 25.863281 C 21.960938 25.855469 21.988281 25.871094 21.996094 25.894531 C 22.003906 25.921875 21.988281 25.949219 21.964844 25.957031 C 21.261719 26.175781 20.574219 26.335938 19.992188 26.46875 C 19.988281 26.46875 19.984375 26.46875 19.984375 26.46875 " fill-opacity="1" fill-rule="nonzero"/><path fill="#5479f7" d="M 9.828125 4.753906 L 8.730469 4.617188 C 8.597656 4.601562 8.464844 4.667969 8.394531 4.785156 L 8.03125 5.382812 L 7.753906 4.683594 C 7.707031 4.5625 7.597656 4.480469 7.472656 4.464844 L 6.464844 4.339844 C 6.273438 4.316406 6.136719 4.140625 6.160156 3.945312 L 6.417969 1.777344 C 6.441406 1.582031 6.613281 1.445312 6.804688 1.46875 L 10.171875 1.882812 C 10.363281 1.90625 10.5 2.082031 10.476562 2.273438 L 10.214844 4.445312 C 10.191406 4.636719 10.019531 4.777344 9.828125 4.753906 " fill-opacity="1" fill-rule="nonzero"/><path fill="#ffffff" d="M 8.785156 3.300781 C 8.679688 3.289062 8.578125 3.328125 8.511719 3.398438 L 7.910156 3.074219 C 7.910156 3.066406 7.914062 3.058594 7.914062 3.050781 C 7.917969 3.035156 7.917969 3.019531 7.917969 3.003906 L 8.597656 2.78125 C 8.652344 2.855469 8.730469 2.910156 8.828125 2.925781 C 9.007812 2.945312 9.171875 2.816406 9.195312 2.632812 C 9.21875 2.453125 9.089844 2.285156 8.910156 2.261719 C 8.730469 2.242188 8.566406 2.371094 8.542969 2.554688 C 8.542969 2.570312 8.542969 2.585938 8.542969 2.601562 L 7.859375 2.820312 C 7.808594 2.746094 7.726562 2.691406 7.628906 2.679688 C 7.449219 2.65625 7.285156 2.785156 7.261719 2.96875 C 7.242188 3.152344 7.371094 3.316406 7.550781 3.339844 C 7.652344 3.351562 7.753906 3.3125 7.820312 3.242188 L 8.421875 3.566406 C 8.421875 3.574219 8.417969 3.582031 8.417969 3.589844 C 8.394531 3.773438 8.523438 3.941406 8.703125 3.960938 C 8.882812 3.984375 9.046875 3.855469 9.070312 3.671875 C 9.089844 3.492188 8.964844 3.324219 8.785156 3.300781 " fill-opacity="1" fill-rule="nonzero"/><path fill="#5479f7" d="M 6.117188 6.835938 L 5.410156 7.167969 C 5.324219 7.207031 5.265625 7.296875 5.265625 7.394531 L 5.265625 7.890625 L 4.84375 7.574219 C 4.773438 7.519531 4.675781 7.511719 4.597656 7.546875 L 3.945312 7.851562 C 3.820312 7.910156 3.675781 7.855469 3.617188 7.730469 L 2.980469 6.328125 C 2.925781 6.203125 2.976562 6.054688 3.101562 5.996094 L 5.273438 4.984375 C 5.398438 4.925781 5.546875 4.980469 5.601562 5.105469 L 6.238281 6.507812 C 6.296875 6.632812 6.242188 6.78125 6.117188 6.835938 " fill-opacity="1" fill-rule="nonzero"/><path fill="#ffffff" d="M 4.835938 5.976562 C 4.765625 5.945312 4.683594 5.945312 4.613281 5.980469 C 4.558594 6.003906 4.515625 6.042969 4.488281 6.097656 C 4.472656 6.125 4.460938 6.15625 4.457031 6.1875 C 4.425781 6.171875 4.398438 6.160156 4.367188 6.152344 C 4.308594 6.140625 4.25 6.144531 4.195312 6.167969 C 4.125 6.203125 4.070312 6.261719 4.046875 6.335938 C 4.019531 6.414062 4.027344 6.496094 4.0625 6.574219 C 4.097656 6.65625 4.160156 6.714844 4.257812 6.765625 C 4.34375 6.808594 4.457031 6.84375 4.589844 6.882812 C 4.636719 6.894531 4.6875 6.910156 4.738281 6.925781 C 4.753906 6.929688 4.769531 6.929688 4.78125 6.921875 C 4.792969 6.917969 4.804688 6.90625 4.8125 6.894531 C 4.835938 6.839844 4.855469 6.792969 4.878906 6.75 C 4.9375 6.625 4.984375 6.515625 5.011719 6.421875 C 5.042969 6.316406 5.039062 6.226562 5.003906 6.148438 C 4.96875 6.070312 4.910156 6.007812 4.835938 5.976562 " fill-opacity="1" fill-rule="nonzero"/><path fill="#ffffff" d="M 20.015625 6.25 C 20.015625 6.25 20.125 6.300781 20.296875 6.28125 C 20.441406 6.265625 21.363281 5.984375 21.742188 4.753906 C 21.742188 4.753906 23.679688 5.082031 24.664062 5.003906 C 25.648438 4.925781 26.179688 4.847656 26.179688 4.847656 C 26.179688 4.847656 25.589844 7.929688 23.417969 7.773438 C 23.417969 7.773438 22.785156 7.734375 22.78125 7.734375 C 22.695312 7.726562 21.539062 7.625 21.125 7.59375 C 20.695312 7.5625 19.542969 7.734375 18.695312 7.453125 C 17.851562 7.171875 17.417969 6.75 15.988281 6.082031 C 15.777344 5.984375 15.167969 5.800781 15.167969 5.800781 C 15.007812 6.105469 14.921875 6.5 14.886719 7.03125 C 14.6875 10.269531 14.042969 11.039062 13.484375 10.996094 C 13.484375 10.996094 13.152344 10.957031 13.136719 10.953125 C 12.980469 10.9375 12.066406 10.839844 10.761719 10.789062 C 10.761719 10.789062 10.609375 10.789062 10.609375 10.789062 C 10.675781 11.582031 10.949219 12.53125 11.566406 13.488281 C 12.964844 15.648438 13.214844 18.996094 12.269531 18.875 C 12.269531 18.875 11.152344 18.789062 9.96875 18.789062 C 9.960938 18.789062 2.890625 18.722656 2.890625 18.722656 C 2.890625 18.722656 0.484375 13.386719 4.917969 14.050781 C 4.972656 14.058594 5.035156 14.058594 5.089844 14.0625 C 5.089844 14.0625 4.554688 12.855469 4.273438 11.328125 C 4.089844 10.359375 4.410156 8.917969 5.9375 8.902344 C 6.867188 8.890625 8.960938 9.089844 8.960938 9.089844 C 8.960938 9.089844 9.09375 8.917969 9.097656 8.914062 C 9.171875 8.792969 9.957031 7.785156 10.601562 6.121094 C 11.269531 4.402344 14.210938 5.175781 15.777344 5.054688 C 15.792969 5.054688 16.386719 5.011719 16.386719 5.011719 C 17.382812 4.941406 18.738281 5.578125 20.015625 6.25 " fill-opacity="1" fill-rule="nonzero"/><path fill="#000000" d="M 10.023438 18.742188 C 11.175781 18.742188 12.265625 18.824219 12.273438 18.824219 C 12.410156 18.84375 12.515625 18.785156 12.597656 18.648438 C 12.820312 18.292969 12.847656 17.464844 12.667969 16.488281 C 12.46875 15.414062 12.054688 14.328125 11.527344 13.515625 C 10.828125 12.4375 10.617188 11.445312 10.5625 10.800781 C 10.5625 10.796875 10.5625 10.792969 10.5625 10.789062 C 10.5625 10.761719 10.582031 10.738281 10.609375 10.738281 C 10.609375 10.738281 10.609375 10.738281 10.613281 10.738281 L 10.6875 10.742188 C 10.726562 10.742188 10.765625 10.742188 10.765625 10.742188 C 12.0625 10.789062 12.972656 10.886719 13.140625 10.90625 C 13.15625 10.90625 13.488281 10.945312 13.488281 10.945312 C 13.632812 10.957031 13.773438 10.90625 13.902344 10.792969 C 14.242188 10.496094 14.683594 9.597656 14.839844 7.027344 C 14.871094 6.488281 14.964844 6.089844 15.125 5.777344 C 15.136719 5.757812 15.160156 5.746094 15.183594 5.753906 C 15.207031 5.761719 15.796875 5.9375 16.007812 6.035156 C 16.667969 6.347656 17.125 6.609375 17.492188 6.816406 C 17.921875 7.0625 18.257812 7.257812 18.710938 7.40625 C 19.308594 7.605469 20.0625 7.574219 20.609375 7.550781 C 20.824219 7.542969 21.007812 7.535156 21.128906 7.542969 C 21.554688 7.574219 22.738281 7.679688 22.785156 7.683594 C 22.796875 7.683594 23.207031 7.710938 23.421875 7.722656 C 24.300781 7.789062 25.023438 7.324219 25.570312 6.34375 C 25.910156 5.734375 26.070312 5.109375 26.117188 4.90625 C 25.945312 4.929688 25.445312 4.992188 24.667969 5.054688 C 23.769531 5.125 22.0625 4.855469 21.777344 4.808594 C 21.394531 5.980469 20.519531 6.308594 20.300781 6.328125 C 20.121094 6.347656 20 6.296875 19.996094 6.296875 C 19.992188 6.292969 19.992188 6.292969 19.988281 6.292969 C 18.695312 5.613281 17.363281 4.992188 16.390625 5.058594 C 16.390625 5.058594 15.796875 5.101562 15.78125 5.105469 C 15.375 5.136719 14.878906 5.109375 14.355469 5.078125 C 12.84375 4.992188 11.128906 4.894531 10.648438 6.136719 C 10.269531 7.117188 9.777344 8.035156 9.1875 8.863281 C 9.164062 8.902344 9.144531 8.925781 9.136719 8.9375 C 9.136719 8.941406 9.132812 8.945312 9 9.121094 C 8.992188 9.132812 8.972656 9.140625 8.957031 9.136719 C 8.9375 9.136719 6.851562 8.9375 5.9375 8.949219 C 5.402344 8.953125 4.984375 9.136719 4.691406 9.496094 C 4.265625 10.019531 4.21875 10.78125 4.320312 11.320312 C 4.597656 12.824219 5.128906 14.03125 5.132812 14.042969 C 5.140625 14.058594 5.136719 14.078125 5.128906 14.089844 C 5.117188 14.105469 5.101562 14.113281 5.085938 14.113281 L 5.078125 14.109375 C 5.023438 14.109375 4.964844 14.105469 4.914062 14.097656 C 3.816406 13.933594 3.054688 14.128906 2.644531 14.671875 C 1.753906 15.863281 2.796875 18.378906 2.921875 18.671875 C 3.433594 18.679688 9.945312 18.742188 9.96875 18.742188 C 9.984375 18.742188 10.003906 18.742188 10.023438 18.742188 Z M 12.320312 18.925781 C 12.300781 18.925781 12.285156 18.925781 12.265625 18.921875 C 12.257812 18.921875 11.136719 18.835938 9.96875 18.839844 C 9.960938 18.839844 4.070312 18.78125 2.890625 18.769531 C 2.871094 18.769531 2.855469 18.757812 2.847656 18.742188 C 2.84375 18.734375 2.527344 18.03125 2.335938 17.179688 C 2.078125 16.027344 2.15625 15.164062 2.570312 14.613281 C 3 14.039062 3.792969 13.832031 4.925781 14 C 4.953125 14.003906 4.984375 14.007812 5.011719 14.011719 C 4.894531 13.726562 4.46875 12.640625 4.222656 11.339844 C 4.121094 10.777344 4.167969 9.984375 4.617188 9.433594 C 4.925781 9.054688 5.371094 8.859375 5.9375 8.851562 C 6.800781 8.84375 8.691406 9.015625 8.941406 9.039062 C 8.988281 8.976562 9.050781 8.890625 9.058594 8.886719 C 9.066406 8.871094 9.082031 8.847656 9.109375 8.808594 C 9.695312 7.984375 10.179688 7.074219 10.558594 6.101562 C 11.066406 4.792969 12.816406 4.894531 14.359375 4.980469 C 14.882812 5.011719 15.375 5.039062 15.777344 5.007812 C 15.789062 5.007812 16.382812 4.960938 16.382812 4.960938 C 17.378906 4.894531 18.726562 5.519531 20.035156 6.207031 C 20.035156 6.207031 20.035156 6.207031 20.039062 6.207031 C 20.054688 6.214844 20.152344 6.25 20.292969 6.234375 C 20.300781 6.230469 21.292969 6.046875 21.695312 4.742188 C 21.703125 4.71875 21.726562 4.703125 21.75 4.707031 C 21.769531 4.710938 23.695312 5.03125 24.660156 4.957031 C 25.632812 4.878906 26.167969 4.800781 26.171875 4.800781 C 26.1875 4.796875 26.203125 4.800781 26.214844 4.8125 C 26.226562 4.824219 26.230469 4.839844 26.226562 4.855469 C 26.226562 4.863281 26.074219 5.644531 25.65625 6.390625 C 25.128906 7.335938 24.414062 7.828125 23.574219 7.828125 C 23.519531 7.828125 23.46875 7.824219 23.414062 7.820312 C 23.128906 7.804688 22.78125 7.78125 22.777344 7.78125 C 22.765625 7.78125 21.546875 7.671875 21.125 7.640625 C 21.003906 7.632812 20.824219 7.640625 20.613281 7.648438 C 20.058594 7.671875 19.296875 7.703125 18.679688 7.5 C 18.21875 7.347656 17.878906 7.148438 17.445312 6.902344 C 17.078125 6.691406 16.625 6.433594 15.96875 6.125 C 15.792969 6.042969 15.332031 5.902344 15.191406 5.859375 C 15.050781 6.152344 14.96875 6.527344 14.9375 7.035156 C 14.808594 9.125 14.480469 10.414062 13.964844 10.867188 C 13.816406 10.996094 13.652344 11.058594 13.480469 11.042969 C 13.476562 11.042969 13.144531 11.003906 13.128906 11 C 12.960938 10.984375 12.054688 10.886719 10.761719 10.839844 L 10.6875 10.835938 C 10.679688 10.835938 10.671875 10.835938 10.664062 10.835938 C 10.722656 11.472656 10.9375 12.425781 11.609375 13.460938 C 12.746094 15.222656 13.175781 17.90625 12.679688 18.703125 C 12.589844 18.847656 12.464844 18.925781 12.320312 18.925781 " fill-opacity="1" fill-rule="nonzero"/><path fill="#000000" d="M 6.359375 14.214844 C 5.988281 14.214844 5.628906 14.195312 5.320312 14.144531 C 5.292969 14.140625 5.277344 14.117188 5.28125 14.089844 C 5.285156 14.0625 5.308594 14.046875 5.335938 14.050781 C 6.828125 14.285156 9.472656 13.828125 9.5 13.824219 C 9.527344 13.816406 9.550781 13.835938 9.558594 13.863281 C 9.5625 13.886719 9.542969 13.914062 9.515625 13.917969 C 9.496094 13.921875 7.808594 14.214844 6.359375 14.214844 " fill-opacity="1" fill-rule="nonzero"/><path fill="#000000" d="M 9.179688 9.144531 C 9.097656 9.144531 9.019531 9.140625 8.945312 9.136719 C 8.917969 9.132812 8.898438 9.113281 8.898438 9.085938 C 8.902344 9.058594 8.925781 9.039062 8.953125 9.039062 C 9.496094 9.078125 10.113281 8.976562 10.832031 8.722656 C 10.855469 8.714844 10.882812 8.726562 10.894531 8.753906 C 10.902344 8.777344 10.886719 8.804688 10.863281 8.816406 C 10.230469 9.035156 9.679688 9.144531 9.179688 9.144531 " fill-opacity="1" fill-rule="nonzero"/><path fill="#000000" d="M 12.320312 18.925781 C 12.195312 18.925781 12.035156 18.867188 11.835938 18.703125 C 11.183594 18.148438 10.953125 16.996094 10.746094 15.980469 C 10.507812 14.792969 10.304688 13.765625 9.535156 13.914062 C 9.292969 13.960938 9.105469 14.09375 8.972656 14.316406 C 8.566406 14.988281 8.742188 16.308594 9.015625 17.238281 C 9.023438 17.261719 9.007812 17.289062 8.984375 17.296875 C 8.957031 17.304688 8.929688 17.289062 8.921875 17.265625 C 8.628906 16.273438 8.46875 14.960938 8.886719 14.265625 C 9.035156 14.019531 9.25 13.871094 9.515625 13.820312 C 10.378906 13.652344 10.605469 14.773438 10.84375 15.960938 C 11.042969 16.960938 11.269531 18.097656 11.898438 18.625 C 12.15625 18.84375 12.363281 18.886719 12.511719 18.753906 C 12.789062 18.507812 12.863281 17.6875 12.699219 16.664062 C 12.515625 15.53125 12.085938 14.382812 11.527344 13.515625 C 10.320312 11.648438 10.398438 9.742188 10.84375 8.984375 C 10.960938 8.785156 11.101562 8.679688 11.238281 8.691406 C 11.632812 8.71875 12.027344 9.300781 12.40625 9.867188 C 12.597656 10.144531 12.777344 10.410156 12.933594 10.570312 C 13.03125 10.667969 13.375 10.976562 13.742188 10.835938 C 14.167969 10.671875 14.707031 9.875 14.839844 7.027344 C 14.839844 7 14.863281 6.980469 14.890625 6.980469 C 14.917969 6.984375 14.9375 7.007812 14.9375 7.03125 C 14.828125 9.359375 14.4375 10.671875 13.777344 10.925781 C 13.355469 11.089844 12.972656 10.75 12.867188 10.640625 C 12.699219 10.472656 12.519531 10.203125 12.328125 9.921875 C 11.976562 9.398438 11.578125 8.8125 11.230469 8.785156 C 11.128906 8.78125 11.023438 8.867188 10.925781 9.035156 C 10.496094 9.769531 10.421875 11.628906 11.609375 13.460938 C 12.175781 14.339844 12.609375 15.5 12.792969 16.648438 C 12.964844 17.71875 12.882812 18.554688 12.578125 18.824219 C 12.515625 18.882812 12.433594 18.925781 12.320312 18.925781 " fill-opacity="1" fill-rule="nonzero"/><path fill="#000000" d="M 15.179688 5.832031 C 15.171875 5.832031 15.160156 5.832031 15.152344 5.824219 C 15.132812 5.808594 15.125 5.78125 15.140625 5.757812 C 15.140625 5.757812 15.144531 5.75 15.148438 5.742188 C 15.167969 5.707031 15.191406 5.664062 15.207031 5.644531 C 15.417969 5.328125 15.746094 5 16.550781 4.957031 C 16.578125 4.957031 16.597656 4.976562 16.601562 5.003906 C 16.601562 5.03125 16.582031 5.054688 16.554688 5.054688 C 15.792969 5.09375 15.484375 5.402344 15.285156 5.699219 C 15.273438 5.714844 15.246094 5.765625 15.234375 5.789062 C 15.226562 5.800781 15.222656 5.8125 15.21875 5.8125 C 15.210938 5.824219 15.195312 5.832031 15.179688 5.832031 " fill-opacity="1" fill-rule="nonzero"/><path fill="#000000" d="M 23.757812 7.816406 C 23.605469 7.816406 23.121094 7.78125 22.664062 7.617188 C 22.191406 7.445312 21.527344 7.097656 20.828125 6.730469 C 20.546875 6.578125 20.25 6.425781 19.972656 6.285156 C 19.949219 6.273438 19.941406 6.242188 19.953125 6.21875 C 19.964844 6.195312 19.992188 6.1875 20.015625 6.199219 C 20.292969 6.339844 20.589844 6.492188 20.875 6.644531 C 21.570312 7.011719 22.230469 7.355469 22.695312 7.527344 C 23.152344 7.691406 23.632812 7.722656 23.765625 7.71875 C 23.792969 7.71875 23.8125 7.742188 23.816406 7.769531 C 23.816406 7.796875 23.792969 7.816406 23.765625 7.816406 C 23.765625 7.816406 23.761719 7.816406 23.757812 7.816406 " fill-opacity="1" fill-rule="nonzero"/><path fill="#000000" d="M 9.136719 8.9375 C 9.136719 8.941406 9.136719 8.941406 9.136719 8.941406 C 9.136719 8.941406 9.136719 8.941406 9.136719 8.9375 Z M 9.089844 8.972656 C 9.085938 8.972656 9.082031 8.972656 9.074219 8.96875 C 9.050781 8.960938 9.035156 8.933594 9.042969 8.90625 C 9.050781 8.894531 9.058594 8.878906 9.109375 8.808594 C 9.695312 7.988281 10.179688 7.078125 10.558594 6.101562 C 11.066406 4.792969 12.816406 4.894531 14.359375 4.980469 C 14.902344 5.011719 15.410156 5.039062 15.816406 5.003906 C 15.84375 5.003906 15.867188 5.019531 15.871094 5.046875 C 15.871094 5.074219 15.851562 5.097656 15.828125 5.101562 C 15.410156 5.136719 14.898438 5.109375 14.355469 5.078125 C 12.84375 4.992188 11.128906 4.894531 10.648438 6.136719 C 10.269531 7.121094 9.777344 8.035156 9.1875 8.863281 C 9.164062 8.898438 9.140625 8.933594 9.136719 8.941406 C 9.128906 8.960938 9.109375 8.972656 9.089844 8.972656 " fill-opacity="1" fill-rule="nonzero"/><path fill="#000000" d="M 13.160156 11.003906 C 13.15625 11.003906 13.15625 11.003906 13.152344 11.003906 C 13.144531 11.003906 12.171875 10.890625 10.757812 10.839844 C 10.730469 10.839844 10.710938 10.816406 10.710938 10.789062 C 10.710938 10.761719 10.734375 10.742188 10.761719 10.742188 C 12.179688 10.796875 13.15625 10.90625 13.164062 10.90625 C 13.191406 10.910156 13.210938 10.933594 13.207031 10.960938 C 13.203125 10.988281 13.183594 11.003906 13.160156 11.003906 " fill-opacity="1" fill-rule="nonzero"/><path fill="#000000" d="M 6.125 15.152344 C 4.855469 15.152344 3.410156 15.082031 3.320312 15.074219 C 3.292969 15.074219 3.273438 15.050781 3.273438 15.023438 C 3.273438 14.996094 3.296875 14.976562 3.324219 14.980469 C 3.355469 14.980469 6.707031 15.144531 7.734375 14.980469 C 7.761719 14.976562 7.785156 14.992188 7.789062 15.019531 C 7.792969 15.046875 7.777344 15.070312 7.75 15.074219 C 7.394531 15.132812 6.785156 15.152344 6.125 15.152344 " fill-opacity="1" fill-rule="nonzero"/><path fill="#000000" d="M 6.921875 15.980469 C 6.898438 15.980469 6.875 15.960938 6.875 15.933594 C 6.875 15.90625 6.894531 15.886719 6.921875 15.882812 C 7.171875 15.882812 7.375 15.875 7.53125 15.867188 C 7.558594 15.867188 7.582031 15.886719 7.582031 15.914062 C 7.582031 15.9375 7.5625 15.960938 7.535156 15.964844 C 7.378906 15.972656 7.171875 15.976562 6.925781 15.980469 C 6.925781 15.980469 6.921875 15.980469 6.921875 15.980469 " fill-opacity="1" fill-rule="nonzero"/><path fill="#000000" d="M 6.242188 15.984375 C 4.832031 15.984375 3.023438 15.933594 3.007812 15.933594 C 2.980469 15.929688 2.960938 15.910156 2.960938 15.882812 C 2.960938 15.855469 2.984375 15.832031 3.007812 15.835938 C 3.027344 15.835938 4.832031 15.886719 6.242188 15.886719 C 6.265625 15.886719 6.289062 15.910156 6.289062 15.9375 C 6.289062 15.964844 6.265625 15.984375 6.242188 15.984375 " fill-opacity="1" fill-rule="nonzero"/><path fill="#000000" d="M 7.636719 16.828125 L 3.113281 16.828125 C 3.085938 16.828125 3.0625 16.808594 3.0625 16.78125 C 3.0625 16.753906 3.085938 16.734375 3.113281 16.734375 L 7.636719 16.734375 C 7.664062 16.734375 7.6875 16.753906 7.6875 16.78125 C 7.6875 16.808594 7.664062 16.828125 7.636719 16.828125 " fill-opacity="1" fill-rule="nonzero"/><path fill="#99b9ff" d="M 6.320312 9.265625 L 8.210938 9.414062 C 8.527344 9.4375 8.84375 9.441406 9.15625 9.425781 L 9.765625 9.394531 C 9.90625 9.386719 10.011719 9.511719 9.984375 9.648438 C 9.917969 9.992188 9.832031 10.609375 9.933594 11.195312 C 9.957031 11.328125 9.855469 11.449219 9.722656 11.445312 L 5.074219 11.355469 C 4.96875 11.355469 4.882812 11.277344 4.867188 11.175781 C 4.839844 10.984375 4.816406 10.660156 4.890625 10.324219 C 5.035156 9.660156 5.652344 9.214844 6.320312 9.265625 " fill-opacity="1" fill-rule="nonzero"/><path fill="#000000" d="M 6.605469 12.046875 C 6.511719 12.046875 6.417969 12.042969 6.328125 12.035156 L 5.007812 11.953125 C 4.980469 11.953125 4.960938 11.929688 4.960938 11.902344 C 4.964844 11.875 4.988281 11.855469 5.011719 11.859375 L 6.332031 11.941406 C 6.433594 11.945312 6.535156 11.949219 6.632812 11.949219 L 7.628906 11.941406 C 7.65625 11.941406 7.675781 11.964844 7.675781 11.988281 C 7.679688 12.015625 7.65625 12.039062 7.628906 12.039062 L 6.632812 12.046875 C 6.625 12.046875 6.613281 12.046875 6.605469 12.046875 " fill-opacity="1" fill-rule="nonzero"/><path fill="#000000" d="M 6.238281 13.535156 C 6.101562 13.535156 5.964844 13.527344 5.832031 13.511719 L 5.492188 13.476562 C 5.464844 13.472656 5.445312 13.449219 5.449219 13.421875 C 5.453125 13.394531 5.476562 13.375 5.5 13.378906 L 5.839844 13.417969 C 5.992188 13.433594 6.148438 13.441406 6.300781 13.4375 L 6.5 13.433594 C 6.523438 13.433594 6.546875 13.453125 6.546875 13.480469 C 6.546875 13.507812 6.527344 13.53125 6.5 13.53125 L 6.304688 13.535156 C 6.28125 13.535156 6.257812 13.535156 6.238281 13.535156 " fill-opacity="1" fill-rule="nonzero"/><path fill="#000000" d="M 7.488281 12.847656 C 6.890625 12.847656 6.296875 12.820312 5.703125 12.761719 L 5.242188 12.714844 C 5.214844 12.710938 5.195312 12.6875 5.199219 12.664062 C 5.199219 12.636719 5.226562 12.617188 5.25 12.617188 L 5.714844 12.664062 C 6.601562 12.753906 7.503906 12.773438 8.398438 12.730469 L 10.289062 12.632812 C 10.316406 12.632812 10.339844 12.652344 10.339844 12.679688 C 10.34375 12.707031 10.320312 12.726562 10.296875 12.730469 L 8.402344 12.824219 C 8.097656 12.839844 7.792969 12.847656 7.488281 12.847656 " fill-opacity="1" fill-rule="nonzero"/><path fill="#000000" d="M 13.832031 9.84375 C 13.832031 9.84375 13.828125 9.84375 13.828125 9.84375 L 12.535156 9.769531 C 12.507812 9.769531 12.488281 9.746094 12.488281 9.71875 C 12.492188 9.691406 12.515625 9.671875 12.539062 9.671875 L 13.832031 9.746094 C 13.859375 9.75 13.878906 9.773438 13.878906 9.796875 C 13.878906 9.824219 13.855469 9.84375 13.832031 9.84375 " fill-opacity="1" fill-rule="nonzero"/><path fill="#000000" d="M 13.976562 9.050781 L 12.054688 8.96875 C 12.03125 8.964844 12.007812 8.945312 12.011719 8.917969 C 12.011719 8.890625 12.035156 8.867188 12.0625 8.871094 L 13.980469 8.953125 C 14.003906 8.957031 14.027344 8.980469 14.023438 9.003906 C 14.023438 9.03125 14.003906 9.050781 13.976562 9.050781 " fill-opacity="1" fill-rule="nonzero"/><path fill="#000000" d="M 14.089844 8.179688 C 14.085938 8.179688 14.085938 8.179688 14.085938 8.179688 L 10.207031 8.050781 C 10.179688 8.050781 10.160156 8.027344 10.160156 8 C 10.164062 7.972656 10.183594 7.953125 10.210938 7.953125 L 14.089844 8.082031 C 14.117188 8.082031 14.136719 8.105469 14.136719 8.132812 C 14.136719 8.15625 14.113281 8.179688 14.089844 8.179688 " fill-opacity="1" fill-rule="nonzero"/><path fill="#000000" d="M 14.226562 7.332031 C 14.226562 7.332031 14.226562 7.332031 14.222656 7.332031 C 13.359375 7.261719 10.722656 7.289062 10.695312 7.289062 C 10.667969 7.289062 10.648438 7.269531 10.648438 7.242188 C 10.648438 7.214844 10.667969 7.195312 10.695312 7.195312 C 10.722656 7.191406 13.363281 7.164062 14.230469 7.234375 C 14.257812 7.238281 14.277344 7.261719 14.273438 7.289062 C 14.273438 7.3125 14.253906 7.332031 14.226562 7.332031 " fill-opacity="1" fill-rule="nonzero"/><path fill="#99b9ff" d="M 11.179688 6.507812 L 14.292969 6.507812 C 14.335938 6.507812 14.371094 6.480469 14.382812 6.4375 C 14.417969 6.277344 14.53125 5.875 14.761719 5.605469 C 14.808594 5.546875 14.773438 5.457031 14.699219 5.457031 C 14.136719 5.425781 12.597656 5.367188 11.914062 5.503906 C 11.863281 5.515625 11.808594 5.535156 11.761719 5.5625 C 11.597656 5.664062 11.203125 5.945312 11.09375 6.394531 C 11.078125 6.453125 11.121094 6.507812 11.179688 6.507812 " fill-opacity="1" fill-rule="nonzero"/><path fill="#000000" d="M 24.328125 5.683594 C 23.25 5.683594 22.117188 5.503906 22.101562 5.5 C 22.074219 5.496094 22.058594 5.472656 22.0625 5.445312 C 22.066406 5.417969 22.089844 5.398438 22.117188 5.40625 C 22.136719 5.40625 24.113281 5.726562 25.3125 5.515625 C 25.339844 5.511719 25.363281 5.53125 25.367188 5.558594 C 25.375 5.582031 25.355469 5.609375 25.328125 5.613281 C 25.027344 5.664062 24.679688 5.683594 24.328125 5.683594 " fill-opacity="1" fill-rule="nonzero"/><path fill="#000000" d="M 24.539062 6.410156 C 23.160156 6.410156 21.605469 6.136719 21.585938 6.132812 C 21.5625 6.128906 21.542969 6.105469 21.546875 6.078125 C 21.550781 6.050781 21.578125 6.035156 21.605469 6.039062 C 21.621094 6.042969 23.449219 6.359375 24.886719 6.304688 C 24.914062 6.304688 24.9375 6.324219 24.9375 6.351562 C 24.9375 6.378906 24.917969 6.402344 24.890625 6.402344 C 24.777344 6.40625 24.65625 6.410156 24.539062 6.410156 " fill-opacity="1" fill-rule="nonzero"/><path fill="#000000" d="M 24.027344 7.144531 C 23.394531 7.144531 22.628906 7.007812 22.589844 7 C 22.566406 6.996094 22.546875 6.972656 22.550781 6.945312 C 22.558594 6.917969 22.582031 6.902344 22.609375 6.90625 C 22.621094 6.90625 23.714844 7.105469 24.355469 7.03125 C 24.382812 7.027344 24.40625 7.046875 24.410156 7.074219 C 24.414062 7.101562 24.394531 7.125 24.367188 7.128906 C 24.261719 7.140625 24.144531 7.144531 24.027344 7.144531 " fill-opacity="1" fill-rule="nonzero"/><path fill="#000000" d="M 4.730469 25.394531 L 16.984375 25.394531 C 17.09375 25.394531 17.179688 25.304688 17.179688 25.195312 L 17.179688 24.757812 L 4.535156 24.757812 L 4.535156 25.195312 C 4.535156 25.304688 4.625 25.394531 4.730469 25.394531 " fill-opacity="1" fill-rule="nonzero"/><path fill="#000000" d="M 4.535156 24.773438 L 11.90625 24.773438 L 9.566406 17.789062 C 9.425781 17.574219 9.179688 17.441406 8.917969 17.441406 L 2.6875 17.441406 C 2.40625 17.441406 2.222656 17.71875 2.316406 17.960938 C 2.351562 18.058594 2.390625 18.15625 2.421875 18.257812 L 4.535156 24.773438 " fill-opacity="1" fill-rule="nonzero"/><path fill="#caddff" d="M 7.289062 21.007812 C 7.382812 21.3125 7.242188 21.628906 6.976562 21.707031 C 6.714844 21.789062 6.425781 21.605469 6.335938 21.296875 C 6.242188 20.992188 6.382812 20.675781 6.648438 20.59375 C 6.910156 20.515625 7.199219 20.699219 7.289062 21.007812 " fill-opacity="1" fill-rule="nonzero"/><path fill="#caddff" d="M 10.785156 24.757812 L 5.628906 24.757812 C 5.605469 24.757812 5.582031 24.738281 5.582031 24.710938 C 5.582031 24.683594 5.605469 24.660156 5.628906 24.660156 L 10.785156 24.660156 C 10.8125 24.660156 10.835938 24.683594 10.835938 24.710938 C 10.835938 24.738281 10.8125 24.757812 10.785156 24.757812 " fill-opacity="1" fill-rule="nonzero"/><path fill="#caddff" d="M 5.066406 24.757812 L 4.46875 24.757812 C 4.441406 24.757812 4.417969 24.738281 4.417969 24.710938 C 4.417969 24.683594 4.441406 24.660156 4.46875 24.660156 L 5.066406 24.660156 C 5.09375 24.660156 5.117188 24.683594 5.117188 24.710938 C 5.117188 24.738281 5.09375 24.757812 5.066406 24.757812 " fill-opacity="1" fill-rule="nonzero"/><path fill="#000000" d="M 9.355469 27.53125 C 8.144531 27.53125 7.136719 27.464844 6.339844 27.335938 C 5.132812 27.136719 4.417969 26.789062 4.210938 26.296875 C 3.941406 25.652344 4.65625 25.015625 4.6875 24.988281 C 4.707031 24.96875 4.738281 24.972656 4.753906 24.992188 C 4.773438 25.011719 4.769531 25.042969 4.75 25.0625 C 4.742188 25.066406 4.058594 25.679688 4.300781 26.261719 C 4.542969 26.839844 5.679688 27.433594 9.339844 27.433594 C 10.4375 27.433594 11.757812 27.382812 13.347656 27.257812 C 14.464844 27.171875 16.507812 26.972656 17.558594 26.773438 C 17.585938 26.769531 17.609375 26.785156 17.617188 26.8125 C 17.621094 26.839844 17.601562 26.863281 17.578125 26.871094 C 16.523438 27.066406 14.476562 27.269531 13.355469 27.355469 C 11.84375 27.472656 10.507812 27.53125 9.355469 27.53125 " fill-opacity="1" fill-rule="nonzero"/><path fill="#5479f7" d="M 25.671875 14.546875 C 25.671875 14.546875 27.414062 14.65625 28.121094 15.609375 C 28.585938 16.242188 28.542969 17.542969 28.296875 19.4375 C 28.132812 20.6875 27.832031 21.308594 27.542969 22.078125 C 26.8125 24.007812 25.691406 24.539062 24.515625 24.644531 C 23.054688 24.78125 17.882812 24.707031 16.660156 24.6875 C 16.519531 24.683594 16.394531 24.605469 16.328125 24.476562 L 16.25 24.320312 C 16.167969 24.152344 16.144531 23.640625 16.179688 23.367188 C 16.203125 23.195312 16.300781 23.039062 16.453125 22.957031 C 16.488281 22.9375 16.523438 22.925781 16.554688 22.921875 L 19 22.640625 C 19 22.640625 21.371094 19.578125 20.296875 18.101562 C 19.90625 17.570312 18.117188 18.703125 16.550781 18.476562 C 15.226562 18.285156 13.792969 15.953125 13.386719 15.242188 C 13.304688 15.101562 13.277344 14.933594 13.308594 14.769531 C 13.359375 14.519531 13.476562 14.160156 13.753906 14.007812 C 13.984375 13.878906 14.414062 13.664062 14.824219 14.09375 C 14.824219 14.09375 15.84375 15.644531 17.074219 15.683594 C 18.300781 15.71875 19.65625 14.039062 23.628906 14.328125 L 25.671875 14.546875 " fill-opacity="1" fill-rule="nonzero"/><path fill="#caddff" d="M 18.96875 22.640625 C 18.941406 22.640625 18.921875 22.621094 18.917969 22.597656 C 18.917969 22.570312 18.9375 22.546875 18.964844 22.542969 C 21.351562 22.335938 25.410156 21.425781 25.773438 17.699219 C 25.773438 17.671875 25.796875 17.652344 25.824219 17.65625 C 25.851562 17.660156 25.871094 17.683594 25.867188 17.710938 C 25.695312 19.5 24.664062 20.84375 22.804688 21.703125 C 21.742188 22.195312 20.453125 22.511719 18.972656 22.640625 C 18.972656 22.640625 18.96875 22.640625 18.96875 22.640625 " fill-opacity="1" fill-rule="nonzero"/><path fill="#000000" d="M 14.105469 15.402344 C 13.742188 15.402344 13.507812 15.011719 13.496094 14.996094 C 13.484375 14.972656 13.492188 14.941406 13.515625 14.929688 C 13.539062 14.914062 13.566406 14.921875 13.582031 14.945312 C 13.582031 14.949219 13.796875 15.304688 14.105469 15.304688 C 14.105469 15.304688 14.109375 15.304688 14.113281 15.304688 C 14.351562 15.300781 14.589844 15.085938 14.820312 14.671875 C 14.832031 14.648438 14.859375 14.640625 14.882812 14.652344 C 14.90625 14.664062 14.914062 14.695312 14.902344 14.71875 C 14.65625 15.167969 14.390625 15.398438 14.113281 15.402344 C 14.109375 15.402344 14.109375 15.402344 14.105469 15.402344 " fill-opacity="1" fill-rule="nonzero"/><path fill="#000000" d="M 17.433594 24.023438 C 17.425781 24.023438 17.421875 24.023438 17.414062 24.023438 C 17.390625 24.011719 17.378906 23.984375 17.386719 23.960938 C 17.441406 23.808594 17.4375 23.671875 17.371094 23.558594 C 17.226562 23.296875 16.832031 23.210938 16.828125 23.210938 C 16.804688 23.203125 16.789062 23.179688 16.792969 23.152344 C 16.796875 23.125 16.824219 23.109375 16.851562 23.117188 C 16.867188 23.121094 17.289062 23.210938 17.457031 23.511719 C 17.535156 23.652344 17.542969 23.8125 17.476562 23.992188 C 17.46875 24.011719 17.453125 24.023438 17.433594 24.023438 " fill-opacity="1" fill-rule="nonzero"/><path fill="#ffffff" d="M 16.765625 23.640625 C 16.703125 23.558594 16.609375 23.5 16.507812 23.480469 C 16.433594 23.46875 16.363281 23.449219 16.289062 23.425781 L 15.308594 23.117188 C 15.125 23.0625 14.941406 23.085938 14.777344 23.175781 C 14.285156 23.449219 13.273438 24.0625 13.433594 24.433594 C 13.605469 24.832031 14.503906 24.457031 14.820312 24.3125 C 14.890625 24.277344 14.972656 24.273438 15.050781 24.300781 C 15.242188 24.371094 15.621094 24.5 15.839844 24.53125 C 16.023438 24.558594 16.183594 24.46875 16.316406 24.363281 C 16.375 24.316406 16.449219 24.285156 16.527344 24.269531 C 16.652344 24.246094 16.761719 24.171875 16.820312 24.058594 C 16.886719 23.933594 16.875 23.78125 16.789062 23.671875 L 16.765625 23.640625 " fill-opacity="1" fill-rule="nonzero"/><path fill="#000000" d="M 15.113281 23.136719 C 15.003906 23.136719 14.898438 23.164062 14.800781 23.21875 C 13.871094 23.734375 13.375 24.179688 13.476562 24.414062 C 13.503906 24.46875 13.546875 24.507812 13.609375 24.535156 C 13.921875 24.652344 14.597656 24.359375 14.796875 24.265625 C 14.882812 24.230469 14.976562 24.226562 15.066406 24.257812 C 15.265625 24.328125 15.636719 24.453125 15.847656 24.484375 C 15.984375 24.503906 16.128906 24.453125 16.285156 24.324219 C 16.351562 24.273438 16.429688 24.242188 16.519531 24.222656 C 16.632812 24.199219 16.726562 24.132812 16.777344 24.035156 C 16.835938 23.925781 16.824219 23.796875 16.75 23.699219 L 16.726562 23.667969 C 16.667969 23.59375 16.589844 23.542969 16.5 23.53125 C 16.433594 23.519531 16.363281 23.5 16.277344 23.472656 L 15.296875 23.160156 C 15.234375 23.144531 15.175781 23.136719 15.113281 23.136719 Z M 13.789062 24.660156 C 13.710938 24.660156 13.636719 24.648438 13.574219 24.625 C 13.488281 24.589844 13.425781 24.53125 13.390625 24.453125 C 13.226562 24.078125 14.042969 23.527344 14.753906 23.132812 C 14.925781 23.039062 15.128906 23.015625 15.324219 23.070312 L 16.304688 23.378906 C 16.386719 23.40625 16.453125 23.421875 16.515625 23.433594 C 16.628906 23.453125 16.730469 23.515625 16.804688 23.609375 L 16.828125 23.640625 C 16.921875 23.769531 16.9375 23.941406 16.863281 24.078125 C 16.863281 24.078125 16.863281 24.082031 16.863281 24.082031 C 16.796875 24.203125 16.679688 24.289062 16.539062 24.316406 C 16.460938 24.332031 16.398438 24.359375 16.347656 24.402344 C 16.167969 24.542969 16 24.601562 15.835938 24.578125 C 15.613281 24.546875 15.238281 24.421875 15.035156 24.347656 C 14.96875 24.324219 14.902344 24.328125 14.839844 24.355469 C 14.621094 24.457031 14.140625 24.660156 13.789062 24.660156 " fill-opacity="1" fill-rule="nonzero"/><path fill="#ffffff" d="M 11.113281 11.722656 C 11.140625 11.632812 11.234375 11.582031 11.324219 11.601562 C 11.578125 11.65625 12.882812 11.933594 13.125 11.988281 C 13.371094 12.042969 13.378906 12.304688 13.519531 12.546875 C 13.640625 12.757812 14.054688 13.527344 14.507812 14.0625 C 14.644531 14.222656 14.664062 14.453125 14.554688 14.636719 C 14.496094 14.742188 14.417969 14.847656 14.324219 14.90625 C 14.082031 15.070312 13.902344 15.261719 13.390625 14.039062 C 13.390625 14.039062 13.160156 13.925781 12.9375 13.667969 C 12.9375 13.667969 12.140625 14.609375 11.9375 12.695312 C 11.921875 12.527344 12 12.359375 12.144531 12.277344 C 12.15625 12.269531 12.171875 12.265625 12.183594 12.257812 L 11.230469 11.960938 C 11.132812 11.929688 11.078125 11.820312 11.113281 11.722656 " fill-opacity="1" fill-rule="nonzero"/><path fill="#000000" d="M 12.9375 13.621094 C 12.949219 13.621094 12.964844 13.625 12.972656 13.636719 C 13.1875 13.882812 13.410156 13.992188 13.414062 13.992188 C 13.421875 14 13.433594 14.007812 13.4375 14.019531 C 13.6875 14.621094 13.875 14.925781 14.027344 14.972656 C 14.105469 14.996094 14.167969 14.953125 14.269531 14.886719 C 14.277344 14.878906 14.289062 14.875 14.300781 14.867188 C 14.375 14.816406 14.445312 14.730469 14.515625 14.613281 C 14.609375 14.445312 14.59375 14.238281 14.46875 14.09375 C 14.0625 13.613281 13.6875 12.945312 13.527344 12.660156 C 13.507812 12.625 13.488281 12.59375 13.476562 12.570312 C 13.433594 12.496094 13.402344 12.417969 13.375 12.347656 C 13.3125 12.191406 13.261719 12.066406 13.117188 12.035156 C 12.851562 11.976562 11.328125 11.652344 11.3125 11.648438 C 11.246094 11.632812 11.179688 11.671875 11.15625 11.738281 C 11.144531 11.773438 11.148438 11.8125 11.164062 11.84375 C 11.183594 11.878906 11.210938 11.902344 11.246094 11.914062 L 12.199219 12.210938 C 12.214844 12.21875 12.230469 12.234375 12.230469 12.253906 C 12.234375 12.273438 12.222656 12.292969 12.207031 12.300781 C 12.191406 12.308594 12.179688 12.3125 12.171875 12.320312 C 12.042969 12.390625 11.972656 12.539062 11.988281 12.691406 C 12.078125 13.550781 12.285156 13.792969 12.445312 13.839844 C 12.667969 13.910156 12.898438 13.640625 12.898438 13.636719 C 12.910156 13.625 12.921875 13.621094 12.9375 13.621094 Z M 14.070312 15.074219 C 14.050781 15.074219 14.027344 15.070312 14 15.066406 C 13.816406 15.007812 13.621094 14.710938 13.355469 14.074219 C 13.300781 14.042969 13.117188 13.9375 12.933594 13.738281 C 12.851562 13.824219 12.640625 14.003906 12.414062 13.933594 C 12.144531 13.847656 11.96875 13.433594 11.890625 12.703125 C 11.875 12.53125 11.941406 12.371094 12.066406 12.273438 L 11.21875 12.007812 C 11.15625 11.988281 11.109375 11.945312 11.078125 11.890625 C 11.050781 11.832031 11.046875 11.765625 11.066406 11.707031 C 11.105469 11.59375 11.21875 11.527344 11.335938 11.550781 C 11.347656 11.554688 12.871094 11.882812 13.136719 11.941406 C 13.332031 11.984375 13.394531 12.140625 13.464844 12.308594 C 13.492188 12.378906 13.519531 12.453125 13.558594 12.523438 C 13.574219 12.546875 13.589844 12.574219 13.609375 12.609375 C 13.769531 12.894531 14.144531 13.554688 14.542969 14.03125 C 14.691406 14.207031 14.714844 14.460938 14.597656 14.660156 C 14.519531 14.792969 14.4375 14.890625 14.351562 14.949219 C 14.34375 14.953125 14.332031 14.960938 14.320312 14.96875 C 14.242188 15.019531 14.164062 15.074219 14.070312 15.074219 " fill-opacity="1" fill-rule="nonzero"/><path fill="#000000" d="M 13.117188 13.285156 C 13.109375 13.285156 13.101562 13.28125 13.09375 13.277344 C 13.03125 13.242188 12.914062 13.164062 12.867188 13.128906 C 12.609375 12.949219 12.464844 12.769531 12.402344 12.679688 C 12.355469 12.613281 12.332031 12.539062 12.335938 12.464844 C 12.339844 12.324219 12.433594 12.292969 12.476562 12.277344 C 12.632812 12.226562 12.882812 12.371094 12.910156 12.386719 C 12.933594 12.402344 12.941406 12.429688 12.925781 12.453125 C 12.914062 12.476562 12.882812 12.484375 12.859375 12.46875 C 12.792969 12.429688 12.605469 12.335938 12.507812 12.371094 C 12.46875 12.382812 12.433594 12.394531 12.429688 12.46875 C 12.429688 12.523438 12.445312 12.574219 12.480469 12.625 C 12.539062 12.710938 12.675781 12.878906 12.921875 13.050781 C 12.96875 13.082031 13.082031 13.160156 13.140625 13.195312 C 13.164062 13.207031 13.171875 13.238281 13.160156 13.261719 C 13.152344 13.277344 13.132812 13.285156 13.117188 13.285156 " fill-opacity="1" fill-rule="nonzero"/><path fill="#000000" d="M 12.945312 13.726562 C 12.933594 13.726562 12.921875 13.722656 12.914062 13.710938 C 12.699219 13.492188 12.710938 13.253906 12.710938 13.246094 C 12.714844 13.21875 12.734375 13.199219 12.761719 13.199219 C 12.789062 13.199219 12.808594 13.222656 12.808594 13.25 C 12.808594 13.257812 12.796875 13.457031 12.980469 13.644531 C 13 13.664062 13 13.695312 12.980469 13.714844 C 12.972656 13.722656 12.957031 13.726562 12.945312 13.726562 " fill-opacity="1" fill-rule="nonzero"/><path fill="#ffffff" d="M 25.410156 14.457031 L 25.667969 12.390625 L 23.878906 12.945312 L 23.699219 14.15625 C 23.65625 14.480469 23.894531 14.710938 23.894531 14.710938 C 24.1875 15.019531 24.667969 15.054688 25.050781 14.875 L 25.140625 14.835938 C 25.289062 14.765625 25.390625 14.621094 25.410156 14.457031 " fill-opacity="1" fill-rule="nonzero"/><path fill="#000000" d="M 25.410156 14.457031 Z M 23.921875 12.984375 L 23.746094 14.164062 C 23.707031 14.460938 23.925781 14.671875 23.929688 14.675781 C 24.191406 14.949219 24.640625 15.015625 25.03125 14.832031 L 25.117188 14.789062 C 25.253906 14.726562 25.34375 14.601562 25.363281 14.449219 L 25.609375 12.457031 Z M 24.570312 15.035156 C 24.296875 15.035156 24.042969 14.933594 23.859375 14.742188 C 23.851562 14.734375 23.605469 14.496094 23.652344 14.148438 L 23.832031 12.9375 C 23.835938 12.917969 23.847656 12.902344 23.867188 12.898438 L 25.652344 12.34375 C 25.667969 12.335938 25.6875 12.339844 25.699219 12.351562 C 25.710938 12.363281 25.71875 12.378906 25.714844 12.394531 L 25.457031 14.460938 C 25.4375 14.644531 25.324219 14.800781 25.160156 14.878906 L 25.070312 14.917969 C 24.90625 14.996094 24.734375 15.035156 24.570312 15.035156 " fill-opacity="1" fill-rule="nonzero"/><path fill="#000000" d="M 23.789062 9.363281 C 24.234375 9.417969 23.605469 9.773438 25.308594 9.582031 C 25.988281 9.507812 25.53125 10.207031 25.707031 10.1875 C 26.355469 10.117188 26.332031 10.121094 26.621094 10.253906 C 26.8125 10.339844 26.878906 10.734375 26.792969 11.007812 C 26.683594 11.367188 26.367188 11.40625 25.96875 12.136719 C 25.6875 12.648438 25.675781 12.984375 25.445312 13.027344 C 25.214844 13.070312 25.101562 12.746094 24.84375 12.769531 C 24.511719 12.804688 24.480469 13.371094 24.128906 13.546875 C 23.910156 13.65625 23.445312 13.644531 22.777344 13.160156 C 22.671875 13.082031 22.632812 12.933594 22.691406 12.8125 C 22.761719 12.65625 22.855469 12.460938 22.960938 12.28125 C 23.457031 11.421875 23.816406 11.269531 23.742188 11.011719 C 23.625 10.613281 22.902344 10.703125 22.839844 10.382812 C 22.777344 10.050781 23.183594 9.292969 23.789062 9.363281 " fill-opacity="1" fill-rule="nonzero"/><path fill="#ffffff" d="M 25.050781 11.21875 L 24.882812 11.433594 C 24.804688 11.53125 24.734375 11.640625 24.671875 11.75 C 24.550781 11.957031 24.34375 12.3125 24.210938 12.503906 C 24.019531 12.78125 23.121094 12.242188 23.121094 12.242188 L 23.09375 12.042969 L 22.988281 11.976562 C 22.96875 11.964844 22.953125 11.949219 22.941406 11.925781 C 22.914062 11.875 22.921875 11.8125 22.960938 11.773438 C 23.171875 11.550781 23.617188 11.054688 23.828125 10.574219 C 23.828125 10.574219 24.574219 10.515625 25.050781 11.21875 " fill-opacity="1" fill-rule="nonzero"/><path fill="#000000" d="M 25 11.214844 C 24.984375 11.199219 24.964844 11.183594 24.949219 11.164062 C 24.933594 11.148438 24.925781 11.128906 24.902344 11.105469 C 24.863281 11.066406 24.824219 11.019531 24.78125 10.984375 C 24.695312 10.902344 24.597656 10.835938 24.496094 10.78125 C 24.394531 10.726562 24.285156 10.6875 24.171875 10.660156 C 24.144531 10.652344 24.117188 10.648438 24.085938 10.640625 C 24.058594 10.636719 24.03125 10.632812 24 10.628906 C 23.945312 10.625 23.886719 10.621094 23.832031 10.621094 L 23.871094 10.59375 C 23.738281 10.882812 23.554688 11.132812 23.359375 11.375 C 23.261719 11.492188 23.160156 11.609375 23.054688 11.722656 L 23.015625 11.765625 L 22.984375 11.796875 C 22.984375 11.800781 22.980469 11.800781 22.976562 11.804688 C 22.960938 11.828125 22.953125 11.859375 22.960938 11.886719 C 22.96875 11.914062 22.988281 11.933594 23.019531 11.945312 C 23.050781 11.964844 23.085938 11.980469 23.117188 12.003906 C 23.132812 12.011719 23.140625 12.023438 23.140625 12.035156 L 23.140625 12.039062 L 23.167969 12.234375 L 23.144531 12.199219 C 23.335938 12.308594 23.539062 12.410156 23.75 12.480469 C 23.800781 12.496094 23.855469 12.511719 23.90625 12.519531 C 23.960938 12.53125 24.011719 12.535156 24.0625 12.527344 C 24.109375 12.523438 24.148438 12.503906 24.171875 12.472656 C 24.203125 12.425781 24.230469 12.378906 24.261719 12.332031 C 24.382812 12.140625 24.5 11.945312 24.613281 11.75 C 24.667969 11.648438 24.734375 11.550781 24.800781 11.457031 C 24.820312 11.433594 24.835938 11.410156 24.851562 11.390625 C 24.867188 11.371094 24.886719 11.351562 24.902344 11.332031 C 24.933594 11.292969 24.964844 11.253906 25 11.214844 Z M 25.097656 11.21875 C 25.0625 11.269531 25.027344 11.320312 24.988281 11.375 L 24.882812 11.519531 C 24.816406 11.609375 24.757812 11.703125 24.699219 11.800781 C 24.585938 11.996094 24.472656 12.195312 24.351562 12.386719 C 24.320312 12.4375 24.289062 12.484375 24.253906 12.53125 C 24.234375 12.5625 24.203125 12.589844 24.171875 12.601562 C 24.15625 12.613281 24.140625 12.617188 24.121094 12.621094 C 24.105469 12.625 24.089844 12.628906 24.074219 12.632812 C 24.007812 12.640625 23.949219 12.632812 23.890625 12.621094 C 23.832031 12.609375 23.773438 12.59375 23.71875 12.578125 C 23.609375 12.539062 23.5 12.496094 23.398438 12.445312 C 23.292969 12.394531 23.195312 12.34375 23.09375 12.285156 C 23.082031 12.277344 23.074219 12.261719 23.070312 12.25 L 23.046875 12.050781 L 23.066406 12.085938 C 23.035156 12.0625 23.003906 12.039062 22.972656 12.015625 C 22.957031 12.007812 22.9375 11.988281 22.921875 11.96875 C 22.910156 11.949219 22.898438 11.925781 22.894531 11.902344 C 22.882812 11.855469 22.894531 11.800781 22.925781 11.761719 C 22.925781 11.757812 22.933594 11.753906 22.9375 11.75 L 22.945312 11.738281 L 22.964844 11.71875 L 23.003906 11.675781 C 23.109375 11.5625 23.207031 11.445312 23.300781 11.324219 C 23.394531 11.207031 23.484375 11.082031 23.566406 10.953125 C 23.648438 10.824219 23.722656 10.691406 23.785156 10.554688 C 23.792969 10.539062 23.808594 10.527344 23.824219 10.527344 C 23.890625 10.523438 23.949219 10.527344 24.011719 10.53125 C 24.042969 10.535156 24.074219 10.539062 24.105469 10.546875 C 24.132812 10.550781 24.164062 10.558594 24.195312 10.5625 C 24.316406 10.59375 24.433594 10.636719 24.542969 10.695312 C 24.652344 10.753906 24.757812 10.824219 24.847656 10.910156 C 24.894531 10.949219 24.933594 10.996094 24.976562 11.042969 C 24.996094 11.0625 25.019531 11.097656 25.039062 11.125 C 25.0625 11.15625 25.082031 11.1875 25.097656 11.21875 " fill-opacity="1" fill-rule="nonzero"/><path fill="#ffffff" d="M 24.730469 12.011719 C 24.730469 12.011719 25.128906 11.496094 25.324219 11.730469 C 25.515625 11.960938 25.0625 12.519531 24.730469 12.011719 " fill-opacity="1" fill-rule="nonzero"/></svg>